<svg width="1196" height="1196" viewBox="0 0 1196 1196" fill="none" xmlns="http://www.w3.org/2000/svg">
<path d="M800.806 604.853L759.544 549.67L1151.8 404.786L926.206 576.197L990.97 625.317L554.131 788.75L800.806 604.853Z" fill="#E8E6E8"/>
<path d="M1043.14 455.233L800.28 545.4L857.269 587.511L682.964 711.967L955.006 609.673L897.55 566.234L1043.14 455.233Z" fill="#EAD053"/>
<path d="M773.358 417.248L697.184 394.046L1018.01 125.867L863.07 363.07L940.582 387.6L583.983 688.214L773.358 417.248Z" fill="#E8E6E8"/>
<path d="M932.605 209.874L734.117 376.345L801.942 396.881L679.543 572.633L901.449 384.933L832.739 363.309L932.605 209.874Z" fill="#EAD053"/>
<path d="M374.336 591.53L438.298 544.096L46.0341 399.213L271.636 570.624L206.86 619.743L643.699 783.177L374.336 591.53Z" fill="#E8E6E8"/>
<path d="M154.703 449.66L397.55 539.815L340.561 581.938L514.878 706.382L242.824 604.088L300.292 560.661L154.703 449.66Z" fill="#EAD053"/>
<path d="M438.023 401.461L514.196 378.259L193.369 110.08L348.311 347.283L270.798 371.801L627.398 672.427L438.023 401.461Z" fill="#E8E6E8"/>
<path d="M278.776 194.075L477.264 360.546L409.439 381.082L531.837 556.834L309.931 369.133L378.642 347.522L278.776 194.075Z" fill="#EAD053"/>
<path d="M586.171 713.067C589.939 724.058 602.03 736.449 612.699 740.061C623.056 743.517 637.815 743.517 645.971 739.75C653.662 736.162 662.715 725.936 665.107 717.779C671.865 695.498 658.84 676.816 636.702 676.816C626.668 676.816 619.444 681.062 615.055 689.374C613.321 692.352 612.065 693.919 612.065 692.675C612.065 688.585 618.499 680.117 624.312 676.505C631.368 672.116 646.282 671.638 653.662 675.561C670.286 684.507 677.355 703.655 670.765 722.647C663.696 743.517 638.281 756.231 615.832 750.155L607.831 748.11L610.809 753.289C613.321 757.367 613.799 760.046 613.01 766.002C611.287 778.249 611.598 782.328 615.21 791.74C619.75 804.138 627.611 815.048 637.934 823.279C651.904 834.425 661.161 837.559 681.098 837.726C696.945 837.726 698.045 837.559 707.41 832.38C726.474 821.975 736.736 805.506 736.736 785.102C736.736 775.534 735.947 771.946 732.49 765.332C725.123 750.885 709.587 741.161 693.895 741.161C686.36 741.161 673.336 747.44 668.313 753.396C655.91 768.31 659.367 792.003 675.369 800.327C682.545 804.095 693.417 803.772 700.952 799.383L707.075 795.795L702.674 799.873C689.518 812.12 666.59 805.996 657.8 787.793C646.342 764.256 667.212 733.495 694.673 733.339C703.119 733.379 711.426 735.489 718.868 739.484C726.309 743.479 732.658 749.237 737.358 756.255C749.449 774.458 748.816 798.617 735.791 817.921C731.234 824.666 731.234 825.096 733.59 830.168C736.736 836.913 747.093 844.125 756.195 846.17C774.709 850.093 789.456 839.114 789.456 821.532C789.456 812.275 782.088 804.119 772.712 802.863C766.6 802.073 765.536 802.54 760.476 807.563C753.42 814.631 753.097 821.066 759.532 827.656C764.866 832.835 762.199 833.768 756.087 829.067C747.141 821.999 747.715 807.874 757.283 799.406C760.356 796.576 764.137 794.63 768.226 793.773C772.314 792.916 776.559 793.181 780.509 794.539C787.255 796.428 790.077 799.095 806.08 817.454C812.67 824.989 818.482 829.689 824.917 833.002C833.229 837.236 835.585 837.714 849.076 837.714C862.232 837.714 864.935 837.236 871.992 833.469C896.163 820.755 902.119 788.75 883.605 771.958C873.403 762.857 861.945 760.967 850.655 766.624C839.365 772.281 834.174 782.782 836.686 794.395C838.563 802.767 843.12 807.551 851.588 810.565C858.967 813.065 859.123 813.232 854.099 813.388C830.562 813.699 820.683 781.993 838.719 763.957C853.322 749.509 879.993 750.61 893.807 766.457L898.519 771.803L898.674 752.176C898.674 734.918 899.141 731.306 902.908 721.427C908.087 707.613 908.087 705.257 903.375 690.977C898.04 675.286 890.829 663.983 878.115 650.959C853.477 625.699 820.36 615.342 786.023 622.087C757.618 627.577 731.246 654.104 725.027 683.083C717.492 718.078 740.575 751.507 776.969 758.431C807.132 764.244 836.482 740.695 836.482 710.424C836.482 699.756 833.337 691.91 825.814 684.22C810.433 668.217 788.307 666.28 773.19 679.663C768.011 684.22 767.21 684.686 769.112 681.553C770.523 679.352 775.391 675.274 780.091 672.451C788.092 667.428 789.192 667.272 800.339 667.894C814.464 668.684 822.154 672.14 831.435 682.019C840.716 691.898 843.204 698.966 843.395 712.936C843.551 723.293 842.929 726.092 838.372 735.217C834.163 743.74 828.005 751.151 820.398 756.851C812.791 762.55 803.948 766.378 794.586 768.023C771.049 772.413 742.8 760.178 727.264 739.319C716.595 724.716 713.617 715.148 713.462 694.9C713.306 674.652 711.728 671.518 698.081 658.649C683.956 645.493 670.465 639.035 651.939 636.99C640.326 635.578 622.279 639.035 613.022 644.524C604.076 649.703 592.151 662.883 588.229 671.829C583.504 682.318 582.571 701.932 586.171 713.067Z" fill="#E8E6E8"/>
<path d="M924.986 807.539C931.732 812.251 946.957 813.029 953.547 808.95C966.26 800.949 966.105 778.979 953.236 774.111C938.956 768.621 926.087 780.713 932.366 793.414C933.933 796.715 933.933 796.715 931.576 793.893C924.209 784.791 933.622 769.411 946.335 769.411C953.391 769.411 962.649 773.955 964.275 778.201C964.753 779.457 965.854 780.234 966.667 779.768C967.48 779.302 965.734 775.211 962.9 770.977C959.765 766.043 957.436 760.641 955.999 754.975C951.609 734.571 964.478 713.39 984.559 708.044C998.218 704.277 1013.75 711.345 1020.19 723.903C1023.48 730.493 1024.27 740.527 1021.75 744.295C1020.5 746.029 1020.34 745.491 1021.12 742.262C1023.63 731.426 1016.89 719.538 1005.27 714.323C1001.63 712.465 997.596 711.497 993.505 711.497C989.414 711.497 985.382 712.465 981.737 714.323C950.82 728.603 958.044 772.7 993.039 782.902C1013.91 789.025 1036.35 777.723 1047.17 755.597C1051.73 746.34 1052.35 743.637 1052.35 731.749C1052.35 720.602 1051.73 716.99 1048.11 709.455C1043.57 699.576 1031.96 686.241 1023.32 680.751C1006.84 670.394 984.559 667.105 966.823 672.439C939.841 680.596 916.925 705.078 909.546 734.117C902.98 759.675 911.017 797.493 924.986 807.539Z" fill="#E8E6E8"/>
<path d="M599.04 713.067C595.273 724.058 583.193 736.449 572.513 740.061C562.156 743.517 547.397 743.517 539.252 739.75C531.562 736.162 522.508 725.936 520.116 717.779C513.371 695.498 526.395 676.816 548.521 676.816C558.556 676.816 565.78 681.062 570.169 689.374C571.903 692.353 573.159 693.919 573.159 692.675C573.159 688.585 566.724 680.117 560.912 676.506C553.856 672.116 538.941 671.638 531.574 675.561C514.938 684.507 507.869 703.655 514.459 722.647C521.528 743.517 546.955 756.231 569.392 750.155L577.393 748.11L574.415 753.289C571.903 757.367 571.425 760.046 572.214 766.002C573.936 778.249 573.625 782.328 570.014 791.74C565.478 804.14 557.616 815.051 547.29 823.279C533.32 834.425 524.063 837.559 504.126 837.726C488.279 837.726 487.179 837.559 477.814 832.38C458.821 822.023 448.631 805.554 448.631 785.15C448.631 775.582 449.409 771.994 452.865 765.38C460.233 750.933 475.769 741.209 491.472 741.209C498.995 741.209 512.019 747.488 517.043 753.444C529.445 768.358 525.989 792.051 509.986 800.375C502.81 804.143 491.939 803.82 484.404 799.43L478.28 795.842L482.682 799.921C495.838 812.168 518.777 806.044 527.556 787.841C539.013 764.304 518.143 733.543 490.683 733.387C482.237 733.427 473.929 735.537 466.488 739.532C459.046 743.527 452.698 749.285 447.998 756.303C435.918 774.506 436.54 798.665 449.564 817.968C454.121 824.714 454.121 825.144 451.765 830.215C448.632 836.961 438.274 844.173 429.161 846.218C410.647 850.141 395.9 839.162 395.9 821.58C395.9 812.323 403.267 804.167 412.644 802.911C418.755 802.121 419.82 802.588 424.879 807.611C431.947 814.679 432.258 821.114 425.824 827.704C420.49 832.883 423.157 833.815 429.28 829.115C438.226 822.047 437.652 807.922 428.084 799.454C425.011 796.624 421.23 794.678 417.142 793.821C413.053 792.964 408.809 793.228 404.858 794.587C398.101 796.476 395.29 799.143 379.275 817.502C372.685 825.037 366.873 829.737 360.438 833.05C352.066 837.284 349.77 837.762 336.279 837.762C323.123 837.762 320.42 837.284 313.364 833.516C289.193 820.803 283.237 788.798 301.751 772.006C311.953 762.905 323.41 761.015 334.712 766.672C346.015 772.329 351.181 782.83 348.67 794.443C346.792 802.815 342.235 807.599 333.768 810.613C326.388 813.113 326.233 813.28 331.256 813.436C354.793 813.747 364.684 782.041 346.637 764.005C332.033 749.557 305.363 750.658 291.549 766.505L286.849 771.851L286.681 752.224C286.681 734.966 286.215 731.354 282.447 721.475C277.269 707.661 277.269 705.305 281.981 691.025C287.315 675.333 294.527 664.031 307.24 651.007C331.878 625.747 364.995 615.39 399.332 622.135C427.737 627.625 454.109 654.152 460.388 683.131C467.911 718.126 444.84 751.555 408.434 758.479C378.079 764.244 348.73 740.695 348.73 710.424C348.73 699.756 351.875 691.91 359.41 684.22C374.79 668.217 396.916 666.28 411.974 679.663C417.153 684.22 417.954 684.686 416.052 681.553C414.641 679.352 409.785 675.274 405.073 672.451C397.072 667.428 395.972 667.272 384.825 667.894C370.7 668.684 363.01 672.14 353.729 682.019C344.448 691.898 341.96 698.966 341.769 712.936C341.613 723.293 342.235 726.092 346.792 735.217C351.003 743.739 357.161 751.149 364.768 756.849C372.374 762.548 381.216 766.376 390.578 768.023C414.115 772.413 442.364 760.178 457.9 739.319C468.569 724.716 471.547 715.148 471.702 694.9C471.858 674.652 473.437 671.518 487.083 658.649C501.208 645.493 514.71 639.035 533.225 636.99C544.838 635.578 562.885 639.035 572.142 644.524C581.088 649.703 593.013 662.883 596.935 671.829C601.707 682.318 602.652 701.932 599.04 713.067Z" fill="#E8E6E8"/>
<path d="M260.226 807.539C253.48 812.251 238.255 813.029 231.665 808.95C218.952 800.949 219.107 778.979 231.976 774.111C246.256 768.621 259.125 780.713 252.846 793.414C251.28 796.715 251.28 796.715 253.636 793.893C261.015 784.791 251.591 769.411 238.889 769.411C231.821 769.411 222.564 773.955 220.949 778.201C220.471 779.457 219.382 780.234 218.557 779.768C217.732 779.302 219.502 775.211 222.324 770.977C225.459 766.043 227.788 760.641 229.225 754.975C233.627 734.571 220.758 713.39 200.665 708.044C187.019 704.277 171.482 711.345 165.048 723.903C161.747 730.493 160.958 740.527 163.469 744.295C164.725 746.029 164.881 745.491 164.103 742.262C161.592 731.426 168.337 719.538 179.95 714.323C183.595 712.465 187.628 711.497 191.719 711.497C195.81 711.497 199.843 712.465 203.487 714.323C234.404 728.603 227.192 772.7 192.197 782.902C171.315 789.025 148.878 777.723 138.054 755.597C133.498 746.34 132.876 743.637 132.876 731.749C132.876 720.602 133.498 716.99 137.109 709.455C141.666 699.576 153.279 686.241 161.903 680.751C178.383 670.394 200.665 667.105 218.402 672.439C245.395 680.596 268.299 705.078 275.678 734.117C282.256 759.675 274.195 797.493 260.226 807.539Z" fill="#E8E6E8"/>
<path d="M598.921 798.94C742.197 798.94 858.345 682.792 858.345 539.516C858.345 396.24 742.197 280.091 598.921 280.091C455.645 280.091 339.497 396.24 339.497 539.516C339.497 682.792 455.645 798.94 598.921 798.94Z" fill="#4A4D4F"/>
<path d="M598.921 808.496C536.702 808.496 476.408 786.922 428.312 747.451C380.216 707.98 347.294 653.053 335.156 592.03C323.017 531.006 332.414 467.662 361.743 412.79C391.073 357.917 438.522 314.912 496.005 291.102C553.488 267.292 617.448 264.15 676.988 282.211C736.528 300.272 787.963 338.419 822.53 390.153C857.097 441.886 872.657 504.004 866.558 565.923C860.46 627.843 833.08 685.732 789.085 729.728C764.17 754.778 734.534 774.639 701.893 788.16C669.251 801.68 634.252 808.592 598.921 808.496ZM598.921 289.647C461.118 289.647 348.957 401.76 348.957 539.611C348.957 677.462 461.07 789.575 598.921 789.575C736.772 789.575 848.885 677.462 848.885 539.611C848.885 401.76 736.736 289.599 598.921 289.599V289.647Z" fill="white"/>
<path d="M760.19 576.783C756.841 574.702 728.352 555.159 732.993 493.23C733.317 488.859 732.478 484.48 730.559 480.539C728.641 476.598 725.713 473.235 722.073 470.794C724.807 468.03 726.853 464.662 728.046 460.962C729.238 457.262 729.544 453.333 728.938 449.493C728.663 447.77 728.208 445.079 727.515 441.755C730.451 439.74 732.919 437.118 734.751 434.064C740.324 424.771 743.29 409.199 733.315 395.9C730.254 391.81 724.836 385.04 722.659 382.337C720.237 379.289 717.14 376.845 713.611 375.199C710.082 373.553 706.219 372.75 702.327 372.853C694.29 364.768 685.164 356.671 677.689 352.892C672.481 350.259 666.529 349.488 660.822 350.706C655.115 351.925 649.997 355.059 646.318 359.589C636.686 358.308 626.886 359.647 617.949 363.464C607.568 358.118 591.338 354.303 574.594 361.934C566.712 359.311 558.341 358.493 550.1 359.542C546.421 355.009 541.299 351.873 535.589 350.657C529.879 349.44 523.925 350.217 518.717 352.856C511.254 356.623 502.129 364.72 494.092 372.805C490.202 372.705 486.342 373.506 482.815 375.148C479.287 376.789 476.188 379.225 473.76 382.266C471.571 384.992 466.141 391.834 463.091 395.852C453.117 409.152 456.083 424.724 461.656 434.017C463.488 437.07 465.956 439.693 468.892 441.707C468.21 445.032 467.696 447.687 467.469 449.445C466.868 453.244 467.16 457.13 468.323 460.797C469.485 464.463 471.486 467.808 474.166 470.566C473.556 471.069 472.97 471.607 472.408 472.169C469.718 474.909 467.703 478.237 466.522 481.891C465.341 485.544 465.026 489.422 465.603 493.219C465.687 493.84 474.047 555.004 436.779 576.101C431.938 578.839 428.156 583.124 426.041 588.269C423.927 593.413 423.602 599.119 425.118 604.47C427.664 613.099 430.809 621.539 434.531 629.73C444.374 651.258 455.939 664.163 469.884 669.198C473.072 670.35 476.462 670.838 479.845 670.633C483.228 670.427 486.534 669.532 489.559 668.002C499.713 688.788 517.174 712.469 546.883 727.623C548.966 728.687 551.188 729.452 553.485 729.895C567.25 732.401 581.222 733.603 595.213 733.483C611.612 733.374 627.988 732.255 644.249 730.134C647.779 729.714 651.177 728.54 654.212 726.69C666.162 719.027 677.194 710.018 687.09 699.839C696.406 690.453 704.39 679.833 710.819 668.277C715.028 670.124 719.667 670.767 724.22 670.134C728.772 669.5 733.06 667.615 736.604 664.689C739.87 661.986 768.657 637.181 773.286 602.078C774.733 591.231 770.045 581.256 760.19 576.783Z" fill="#4A4D4F"/>
<path d="M595.321 738.111C581.04 738.24 566.779 737.006 552.731 734.428C550.001 733.911 547.359 733.005 544.886 731.737C520.272 719.179 500.969 699.72 487.478 673.886C481.27 675.883 474.576 675.774 468.437 673.575C453.272 668.121 440.846 654.439 430.452 631.715C426.63 623.308 423.4 614.644 420.789 605.786C418.977 599.44 419.356 592.669 421.865 586.565C424.373 580.462 428.864 575.381 434.614 572.142C468.976 552.695 461.225 494.522 461.142 493.936C460.524 489.73 460.82 485.441 462.011 481.36C463.202 477.28 465.26 473.504 468.043 470.291C463.649 464.034 461.853 456.317 463.031 448.763C463.223 447.567 463.522 445.773 463.928 443.656C461.519 441.608 459.456 439.185 457.817 436.48C451.514 425.967 448.165 408.314 459.515 393.173C462.469 389.238 467.528 382.899 470.279 379.479C472.922 376.151 476.249 373.431 480.036 371.504C483.823 369.577 487.98 368.487 492.226 368.308C501.937 358.68 510.166 352.126 516.696 348.825C520.859 346.736 525.447 345.632 530.105 345.599C534.763 345.566 539.366 346.604 543.558 348.634C546.73 350.181 549.604 352.274 552.05 354.817C559.579 354.134 567.17 354.893 574.415 357.054C593.216 349.232 610.092 354.662 618.153 358.441C626.53 355.237 635.535 354.009 644.465 354.853C648.942 350.205 654.793 347.116 661.156 346.04C667.52 344.963 674.061 345.957 679.818 348.873C686.348 352.174 694.577 358.716 704.289 368.356C708.538 368.536 712.699 369.628 716.49 371.558C720.281 373.487 723.612 376.209 726.259 379.539C728.448 382.277 733.901 389.107 737.023 393.221C748.373 408.362 745.036 426.015 738.721 436.54C737.084 439.245 735.02 441.669 732.61 443.716C733.028 445.857 733.315 447.615 733.507 448.823C734.678 456.309 732.922 463.958 728.603 470.183C731.739 473.186 734.172 476.844 735.729 480.896C737.286 484.949 737.928 489.296 737.609 493.625C733.256 551.679 758.539 570.265 762.414 572.764C773.704 578.099 779.625 589.508 777.902 602.664C773.035 639.561 743.003 665.395 739.63 668.217C735.988 671.256 731.662 673.364 727.025 674.362C722.387 675.36 717.577 675.217 713.007 673.946C706.703 684.534 699.137 694.317 690.475 703.081C680.299 713.504 668.967 722.733 656.7 730.589C653.123 732.781 649.118 734.184 644.955 734.703C628.495 736.85 611.92 737.988 595.321 738.111ZM491.747 661.747L493.816 665.969C506.482 691.898 525.08 711.261 549.084 723.508C550.78 724.379 552.593 725.003 554.466 725.362C567.942 727.82 581.622 728.994 595.321 728.866C611.523 728.753 627.703 727.65 643.771 725.565C646.625 725.212 649.37 724.249 651.82 722.743C663.444 715.283 674.175 706.515 683.801 696.61C692.842 687.531 700.592 677.253 706.836 666.064L708.857 662.345L712.744 664.043C716.171 665.552 719.951 666.075 723.659 665.553C727.367 665.031 730.856 663.485 733.734 661.089C736.856 658.494 764.376 634.777 768.777 601.432C769.973 592.331 765.966 584.485 758.312 580.969L757.81 580.706C754.245 578.529 723.58 557.575 728.364 492.884C728.621 489.327 727.935 485.765 726.375 482.558C724.814 479.351 722.435 476.613 719.478 474.621L714.861 471.511L718.76 467.552C720.976 465.298 722.636 462.557 723.608 459.549C724.579 456.541 724.836 453.347 724.357 450.222C724.094 448.596 723.652 445.988 722.97 442.699L722.348 439.685L724.884 437.951C727.272 436.309 729.279 434.171 730.768 431.684C735.552 423.623 738.207 410.156 729.572 398.675C726.558 394.644 721.2 387.911 719.011 385.232C717.035 382.745 714.51 380.751 711.634 379.404C708.758 378.057 705.61 377.395 702.435 377.47H700.449L699.05 376.058C689.578 366.49 681.481 359.936 675.608 356.922C671.343 354.759 666.464 354.124 661.787 355.123C657.11 356.122 652.916 358.695 649.906 362.412L648.304 364.373L645.792 364.074C636.978 362.888 628.008 364.102 619.827 367.591L617.806 368.488L615.832 367.471C609.852 364.385 594.005 358.058 576.508 366.048L574.833 366.801L573.087 366.203C565.853 363.828 558.178 363.101 550.626 364.074L548.115 364.373L546.572 362.508C543.56 358.79 539.365 356.217 534.685 355.218C530.006 354.219 525.126 354.854 520.858 357.018C514.998 359.984 506.901 366.586 497.428 376.154L496.029 377.565H494.044C490.871 377.477 487.721 378.13 484.846 379.474C481.97 380.817 479.447 382.813 477.479 385.303C475.29 388.03 469.884 394.788 466.906 398.77C458.307 410.228 460.926 423.719 465.71 431.78C467.196 434.27 469.203 436.408 471.595 438.047L474.13 439.781L473.496 442.795C472.827 446.024 472.372 448.667 472.121 450.318C471.62 453.409 471.852 456.574 472.797 459.559C473.742 462.544 475.374 465.265 477.563 467.504L480.995 471.092L477.204 474.142C476.654 474.609 476.187 475.039 475.781 475.446C473.581 477.668 471.933 480.375 470.97 483.349C470.006 486.324 469.753 489.483 470.231 492.573C470.339 493.254 479.106 557.539 439.135 580.168C435.189 582.389 432.106 585.874 430.384 590.062C428.661 594.25 428.398 598.895 429.639 603.25C432.126 611.671 435.199 619.908 438.836 627.9C448.141 648.232 458.845 660.347 471.559 664.976C474.158 665.902 476.917 666.289 479.671 666.114C482.424 665.94 485.113 665.206 487.573 663.959L491.747 661.747Z" fill="white"/>
<path d="M558.927 701.825C582.847 706.405 611.108 705.652 641.941 701.825C641.941 701.825 697.734 667.643 699.134 620.21L721.451 641.833C721.451 641.833 745.873 621.609 749.354 595.106C749.354 595.106 702.626 571.389 708.905 487.681L683.789 480.708C683.789 480.708 699.134 517.677 694.254 545.579C689.374 573.482 687.628 557.432 687.628 557.432C687.628 557.432 681.876 545.926 676.47 558.305C671.064 570.683 674.544 606.779 674.544 606.779C674.544 606.779 649.261 564.919 620.138 579.582C620.138 579.582 603.227 590.92 625.723 593.013C625.723 593.013 648.914 605.559 651.88 637.994L633.569 662.237C633.569 662.237 640.889 634.861 621.358 629.945C621.358 629.945 610.594 619.48 592.762 624.36C592.762 624.36 601.48 626.752 609.506 635.865C609.506 635.865 561.725 634.131 572.884 670.753C572.884 670.753 539.743 652.263 549.514 626.8C559.286 601.337 550.555 625.412 550.555 625.412C550.555 625.412 558.233 596.11 579.163 591.231C579.163 591.231 594.508 588.085 579.51 578.326C579.51 578.326 548.821 566.461 526.886 606.575V565.804C526.886 565.804 515.727 538.953 512.594 562.311C512.594 562.311 498.242 541.046 509.448 506.518L512.893 483.184C512.893 483.184 506.913 488.064 490.922 485.971C490.922 485.971 502.775 564.093 449.768 594.089C449.768 594.089 461.62 635.949 479.058 642.216L501.387 618.499C501.387 618.499 508.36 676.015 558.927 701.825Z" fill="white"/>
<path d="M570.875 620.042C570.875 620.042 595.811 602.246 628.283 620.042V610.091C628.283 610.091 600.38 585.514 570.875 610.091V620.042Z" fill="#EAD053"/>
<path d="M591.099 578.445H607.054C607.054 578.445 614.122 564.584 628.247 565.373L624.312 554.382C624.312 554.382 621.693 550.459 616.729 554.382C611.766 558.305 611.491 560.362 611.491 560.362C611.491 560.362 610.187 546.763 614.11 538.654C614.11 538.654 616.203 528.189 608.357 523.214C602.805 525.383 596.639 525.383 591.087 523.214C591.087 523.214 582.978 525.606 585.334 540.484C587.69 555.363 588.743 559.321 588.743 559.321L581.938 554.083C581.938 554.083 576.699 547.804 574.092 555.387C571.485 562.969 572.262 565.337 572.262 565.337L579.582 566.904C579.582 566.904 589.269 571.903 591.099 578.445Z" fill="#EAD053"/>
<path d="M654.343 560.589C654.343 560.589 658.278 540.939 664.569 536.741L654.343 534.612C654.343 534.612 670.334 522.03 678.192 519.674C678.192 519.674 682.378 518.37 678.192 515.225L676.099 504.736C676.099 504.736 669.018 494.522 661.95 501.59C661.95 501.59 658.541 507.355 658.541 511.027C658.541 511.027 633.425 516.265 629.455 523.083C625.484 529.9 630.507 556.917 654.343 560.589Z" fill="#EAD053"/>
<path d="M547.242 560.589C547.242 560.589 543.307 540.939 537.016 536.741L547.242 534.648C547.242 534.648 531.251 522.066 523.394 519.71C523.394 519.71 519.208 518.406 523.394 515.261L525.487 504.772C525.487 504.772 532.567 494.558 539.635 501.626C539.635 501.626 543.044 507.391 543.044 511.063C543.044 511.063 568.16 516.301 572.131 523.118C576.101 529.936 571.078 556.917 547.242 560.589Z" fill="#EAD053"/>
<path d="M666.949 476.187C666.949 476.187 649.655 476.187 640.219 489.81C640.219 489.81 629.742 498.445 620.832 498.588C611.921 498.732 608.764 487.382 608.764 487.382C608.764 487.382 609.816 497.931 600.392 498.588C600.392 498.588 590.968 499.115 591.482 487.394C591.482 487.394 585.203 502.129 575.766 498.588C575.766 498.588 570.002 499.139 556.379 487.669C542.757 476.199 532.268 476.187 532.268 476.187C532.268 476.187 511.314 455.927 557.384 472.874C557.384 472.874 548.474 457.326 530.139 453.655C530.139 453.655 552.672 447.89 567.347 440.032C567.347 440.032 571.533 442.652 565.254 451.562C565.254 451.562 580.969 457.326 619.229 433.215C619.229 433.215 641.762 449.469 666.914 452.088C666.914 452.088 645.386 464.311 641.798 472.874C641.798 472.874 655.946 464.502 666.914 466.177C666.949 466.177 677.426 465.71 666.949 476.187Z" fill="#EAD053"/>
<path d="M714.12 417.595C714.12 417.595 717.624 411.759 714.12 407.094C711.249 403.255 705.748 396.462 703.966 394.166C703.905 394.095 703.827 394.042 703.739 394.012C703.651 393.983 703.557 393.977 703.466 393.997C703.375 394.017 703.291 394.06 703.224 394.124C703.156 394.187 703.106 394.268 703.081 394.357L700.689 403.303C700.689 403.303 678.108 376.871 667.201 371.358C667.093 371.304 666.974 371.276 666.854 371.275C666.734 371.275 666.615 371.303 666.507 371.356C666.4 371.409 666.306 371.487 666.233 371.583C666.16 371.679 666.111 371.79 666.088 371.908L664.533 379.682L672.69 391.343C672.69 391.343 645.278 373.559 627.242 383.186C627.242 383.186 641.247 414.091 677.988 408.302L686.157 419.963C686.157 419.963 662.823 402.861 637.456 422.595C637.456 422.595 656.7 439.506 681.493 433.095C681.493 433.095 672.164 444.469 674.496 449.72C674.496 449.72 678.873 457.877 705.114 449.72C705.114 449.72 701.035 423.886 692.58 412.153C692.544 412.118 693.417 406.508 714.12 417.595Z" fill="#EAD053"/>
<path d="M570.624 414.761C570.624 414.761 587.475 419.354 589.437 435.32C589.437 435.32 614.553 428.981 618.308 411.041C618.308 411.041 621.896 416.507 627.206 418.696C627.206 418.696 627.721 395.972 596.66 388.293C596.66 388.293 599.507 383.258 609.996 383.509C609.996 383.509 596.84 373.654 582.655 382.409C582.655 382.409 589.006 383.509 588.779 388.748C588.552 393.986 581.124 402.538 581.124 402.538C581.124 402.538 594.687 411.926 592.068 416.961C588.931 414.905 585.345 413.631 581.614 413.248C577.882 412.866 574.113 413.384 570.624 414.761Z" fill="#EAD053"/>
<path d="M483.71 417.595C483.71 417.595 480.218 411.759 483.71 407.095C486.593 403.255 492.082 396.462 493.876 394.166C493.937 394.095 494.015 394.042 494.103 394.013C494.191 393.983 494.285 393.978 494.376 393.997C494.467 394.017 494.55 394.061 494.618 394.124C494.686 394.187 494.735 394.268 494.761 394.357L497.153 403.303C497.153 403.303 519.734 376.872 530.641 371.358C530.75 371.304 530.869 371.276 530.99 371.276C531.111 371.276 531.23 371.303 531.339 371.356C531.448 371.409 531.543 371.487 531.616 371.583C531.69 371.678 531.741 371.79 531.765 371.908L533.32 379.682L525.152 391.343C525.152 391.343 552.564 373.559 570.6 383.186C570.6 383.186 556.606 414.091 519.853 408.302L511.685 419.964C511.685 419.964 535.019 402.861 560.398 422.595C560.398 422.595 541.142 439.506 516.361 433.096C516.361 433.096 525.69 444.47 523.358 449.72C523.358 449.72 518.98 457.877 492.728 449.72C492.728 449.72 496.818 423.886 505.274 412.154C505.298 412.118 504.425 406.508 483.71 417.595Z" fill="#EAD053"/>
<path d="M79.247 988.662C38.0209 988.662 28.3691 963.438 28.3691 946.515V943.106C28.3691 925.955 37.9371 901.425 79.247 901.425H84.4735C124.456 901.425 134.347 920.394 134.347 935.619V936.181H106.444C106.109 934.028 103.609 922.666 81.9141 922.666C61.9169 922.666 56.7024 934.136 56.7024 943.907V945.378C56.7024 954.587 62.0365 967.193 82.0217 967.193C103.717 967.193 106.109 955.724 106.444 953.451H134.395V954.133C134.395 968.485 124.731 988.662 84.5213 988.662H79.247Z" fill="#E8E6E8"/>
<path d="M178.969 956.8L135.913 902.848H169.186L193.501 934.542L217.923 902.848H247.692L205.999 956.92V987.298H178.969V956.8Z" fill="#E8E6E8"/>
<path d="M256.65 902.789H322.92C347.115 902.789 353.813 912.668 353.813 922.666V923.683C353.813 934.71 344.161 939.709 337.798 940.606C347.007 942.089 358.25 947.316 358.25 961.512V962.648C358.25 975.374 350.524 987.298 323.147 987.298H256.65V902.789ZM283.799 921.53V935.164H316.737C323.554 935.164 325.599 932.21 325.599 928.455V928.227C325.599 924.257 323.554 921.53 316.737 921.53H283.799ZM283.799 952.626V967.624H318.901C327.082 967.624 328.9 963.641 328.9 960.017V959.563C328.9 955.807 327.082 952.626 318.901 952.626H283.799Z" fill="#E8E6E8"/>
<path d="M454.48 902.789V922.212H400.445V934.483H452.806V954.587H400.445V967.648H455.198V987.298H373.523V902.789H454.48Z" fill="#E8E6E8"/>
<path d="M572.071 967.648V978.663C572.071 983.997 572.633 985.48 573.434 986.724V987.298H545.376C545.029 986.724 544.694 985.253 544.694 981.725V974.74C544.694 963.832 540.712 959.85 528.787 959.85H500.275V987.358H473.138V902.789H535.808C567.275 902.789 571.365 915.514 571.365 925.62V926.637C571.365 937.891 562.993 944.469 552.959 946.634C564.225 948.787 572.071 954.922 572.071 967.648ZM500.311 939.027H532.22C540.963 939.027 543.127 935.272 543.127 930.954V930.727C543.127 926.637 540.963 923.013 532.22 923.013H500.275L500.311 939.027Z" fill="#E8E6E8"/>
<path d="M677.008 901.425C719.262 901.425 729.632 925.166 729.632 943.106V946.515C729.632 964.239 719.406 988.662 677.008 988.662H671.889C629.646 988.662 619.265 964.239 619.265 946.515V943.106C619.265 925.166 629.61 901.425 671.889 901.425H677.008ZM701.31 944.015C701.31 934.818 696.993 922.547 674.508 922.547C652.023 922.547 647.586 934.818 647.586 944.015V945.498C647.586 954.695 652.37 967.301 674.508 967.301C696.993 967.301 701.31 954.695 701.31 945.498V944.015Z" fill="#E8E6E8"/>
<path d="M772.975 902.789V965.256H824.044V987.298H745.826V902.789H772.975Z" fill="#E8E6E8"/>
<path d="M853.501 956.8L810.445 902.848H843.718L868.033 934.542L892.455 902.848H922.212L880.531 956.92V987.298H853.501V956.8Z" fill="#E8E6E8"/>
<path d="M931.182 902.789H967.994L992.859 955.413L1018.31 902.789H1053.29V987.298H1026.72V933.346L1001.39 987.298H982.526L957.314 933.346V987.298H931.182V902.789Z" fill="#E8E6E8"/>
<path d="M1100.42 961.177V987.298H1073.28V902.789H1132.79C1161.87 902.789 1170.17 914.485 1170.17 931.074V932.437C1170.17 948.906 1161.64 961.141 1132.79 961.141L1100.42 961.177ZM1100.42 940.953H1130.52C1139.03 940.953 1141.99 937.437 1141.99 932.091V931.756C1141.99 926.756 1139.03 923.121 1130.52 923.121H1100.42V940.953Z" fill="#E8E6E8"/>
</svg>
