<svg width="126" height="126" viewBox="0 0 126 126" fill="none" xmlns="http://www.w3.org/2000/svg">
<path d="M84.3659 63.7219L80.0189 57.9083L121.343 42.6447L97.577 60.703L104.4 65.8778L58.3784 83.0957L84.3659 63.7219Z" fill="#4A4D4F"/>
<path d="M109.896 47.9594L84.3103 57.4585L90.3142 61.895L71.9509 75.0065L100.611 64.2297L94.5579 59.6534L109.896 47.9594Z" fill="#EAD053"/>
<path d="M81.474 43.9576L73.4491 41.5132L107.249 13.2603L90.9253 38.2498L99.0914 40.8341L61.5232 72.5042L81.474 43.9576Z" fill="#4A4D4F"/>
<path d="M98.2509 22.1105L77.34 39.6484L84.4854 41.8118L71.5906 60.3275L94.9686 40.5531L87.7299 38.275L98.2509 22.1105Z" fill="#EAD053"/>
<path d="M39.4369 62.3183L46.1753 57.3211L4.84985 42.0575L28.6172 60.1158L21.7931 65.2906L67.8146 82.5085L39.4369 62.3183Z" fill="#4A4D4F"/>
<path d="M16.2981 47.3722L41.8824 56.8701L35.8785 61.3078L54.243 74.4181L25.5818 63.6413L31.6361 59.0663L16.2981 47.3722Z" fill="#EAD053"/>
<path d="M46.1461 42.2944L54.1711 39.85L20.3716 11.597L36.6949 36.5866L28.5288 39.1696L66.097 70.841L46.1461 42.2944Z" fill="#4A4D4F"/>
<path d="M29.3694 20.446L50.2803 37.984L43.1349 40.1474L56.0297 58.6631L32.6517 38.8887L39.8904 36.6118L29.3694 20.446Z" fill="#EAD053"/>
<path d="M61.7538 75.1224C62.1507 76.2803 63.4245 77.5857 64.5484 77.9662C65.6396 78.3304 67.1944 78.3304 68.0538 77.9335C68.8639 77.5555 69.8178 76.4782 70.0698 75.6188C70.7817 73.2715 69.4095 71.3033 67.0773 71.3033C66.0201 71.3033 65.2591 71.7506 64.7967 72.6263C64.614 72.9401 64.4817 73.1051 64.4817 72.9741C64.4817 72.5432 65.1595 71.6511 65.7719 71.2706C66.5153 70.8082 68.0865 70.7578 68.8639 71.171C70.6153 72.1135 71.36 74.1308 70.6657 76.1317C69.9211 78.3304 67.2436 79.6697 64.8786 79.0297L64.0356 78.8142L64.3494 79.3598C64.614 79.7894 64.6644 80.0717 64.5812 80.6992C64.3998 81.9894 64.4325 82.4191 64.813 83.4107C65.2913 84.7168 66.1195 85.8662 67.207 86.7333C68.6787 87.9076 69.654 88.2377 71.7544 88.2554C73.4239 88.2554 73.5398 88.2377 74.5264 87.6922C76.5348 86.596 77.6159 84.8609 77.6159 82.7114C77.6159 81.7034 77.5327 81.3254 77.1686 80.6286C76.3924 79.1065 74.7557 78.0821 73.1026 78.0821C72.3088 78.0821 70.9366 78.7436 70.4074 79.3711C69.1008 80.9423 69.465 83.4384 71.1508 84.3154C71.9068 84.7123 73.0522 84.6782 73.846 84.2158L74.4911 83.8378L74.0274 84.2675C72.6414 85.5577 70.226 84.9126 69.2999 82.9949C68.0928 80.5152 70.2915 77.2745 73.1845 77.2581C74.0743 77.2623 74.9495 77.4846 75.7335 77.9054C76.5174 78.3263 77.1863 78.933 77.6814 79.6723C78.9553 81.59 78.8885 84.1352 77.5164 86.1688C77.0363 86.8795 77.0363 86.9248 77.2845 87.4591C77.6159 88.1697 78.7071 88.9295 79.6659 89.1449C81.6164 89.5582 83.17 88.4015 83.17 86.5493C83.17 85.5741 82.3938 84.7148 81.406 84.5825C80.7621 84.4993 80.65 84.5485 80.117 85.0777C79.3736 85.8223 79.3396 86.5002 80.0175 87.1945C80.5794 87.74 80.2984 87.8383 79.6546 87.3431C78.7121 86.5985 78.7726 85.1104 79.7806 84.2183C80.1043 83.9202 80.5026 83.7151 80.9334 83.6248C81.3641 83.5346 81.8113 83.5624 82.2275 83.7055C82.9381 83.9046 83.2355 84.1856 84.9214 86.1197C85.6156 86.9135 86.228 87.4087 86.9059 87.7577C87.7816 88.2037 88.0298 88.2541 89.4511 88.2541C90.8371 88.2541 91.1218 88.2037 91.8652 87.8068C94.4117 86.4674 95.0392 83.0957 93.0887 81.3266C92.0139 80.3678 90.8068 80.1687 89.6174 80.7647C88.428 81.3607 87.8811 82.4669 88.1457 83.6904C88.3435 84.5724 88.8236 85.0764 89.7157 85.3939C90.4931 85.6573 90.5095 85.6749 89.9803 85.6913C87.5006 85.724 86.4598 82.3838 88.3599 80.4837C89.8984 78.9616 92.7082 79.0775 94.1635 80.747L94.6599 81.3103L94.6763 79.2426C94.6763 77.4244 94.7254 77.0439 95.1223 76.0031C95.6679 74.5478 95.6679 74.2996 95.1715 72.7952C94.6095 71.1421 93.8497 69.9514 92.5104 68.5792C89.9148 65.9181 86.4258 64.8269 82.8084 65.5376C79.8159 66.1159 77.0376 68.9106 76.3824 71.9636C75.5886 75.6503 78.0204 79.172 81.8545 79.9016C85.0323 80.5139 88.1243 78.033 88.1243 74.8439C88.1243 73.72 87.7929 72.8935 87.0004 72.0833C85.38 70.3974 83.049 70.1933 81.4564 71.6032C80.9108 72.0833 80.8264 72.1324 81.0267 71.8023C81.1754 71.5705 81.6882 71.1408 82.1834 70.8434C83.0263 70.3142 83.1423 70.2979 84.3166 70.3634C85.8046 70.4465 86.6148 70.8107 87.5926 71.8514C88.5703 72.8922 88.8324 73.6369 88.8526 75.1085C88.869 76.1997 88.8034 76.4945 88.3234 77.4559C87.8799 78.3538 87.2312 79.1346 86.4298 79.7351C85.6284 80.3355 84.6968 80.7388 83.7105 80.9121C81.2308 81.3745 78.2547 80.0855 76.618 77.8881C75.4941 76.3496 75.1803 75.3416 75.1639 73.2085C75.1476 71.0753 74.9812 70.7452 73.5436 69.3894C72.0555 68.0034 70.6342 67.323 68.6825 67.1075C67.459 66.9589 65.5577 67.323 64.5825 67.9013C63.64 68.4469 62.3838 69.8354 61.9705 70.7779C61.4728 71.8829 61.3745 73.9493 61.7538 75.1224Z" fill="#4A4D4F"/>
<path d="M97.4484 85.0752C98.1591 85.5716 99.763 85.6535 100.457 85.2238C101.797 84.3809 101.78 82.0663 100.425 81.5535C98.9201 80.9751 97.5643 82.249 98.2258 83.5871C98.3909 83.9349 98.3909 83.9349 98.1427 83.6375C97.3665 82.6786 98.3581 81.0583 99.6975 81.0583C100.441 81.0583 101.416 81.5371 101.588 81.9844C101.638 82.1167 101.754 82.1986 101.84 82.1494C101.925 82.1003 101.741 81.6694 101.443 81.2233C101.112 80.7035 100.867 80.1344 100.716 79.5375C100.253 77.3879 101.609 75.1564 103.724 74.5932C105.163 74.1963 106.8 74.941 107.478 76.264C107.825 76.9582 107.908 78.0154 107.643 78.4123C107.511 78.595 107.494 78.5383 107.576 78.1981C107.841 77.0565 107.13 75.8041 105.907 75.2547C105.523 75.059 105.098 74.957 104.667 74.957C104.236 74.957 103.811 75.059 103.427 75.2547C100.17 76.7592 100.931 81.4048 104.618 82.4796C106.817 83.1247 109.18 81.934 110.321 79.603C110.801 78.6277 110.866 78.343 110.866 77.0905C110.866 75.9162 110.801 75.5357 110.42 74.7419C109.941 73.7011 108.718 72.2962 107.808 71.7179C106.072 70.6267 103.724 70.2802 101.856 70.8422C99.0133 71.7015 96.5992 74.2807 95.8218 77.34C95.13 80.0326 95.9767 84.0168 97.4484 85.0752Z" fill="#4A4D4F"/>
<path d="M63.1096 75.1225C62.7127 76.2804 61.4401 77.5858 60.3149 77.9663C59.2237 78.3305 57.6689 78.3305 56.8108 77.9336C56.0007 77.5556 55.0468 76.4783 54.7948 75.6189C54.0842 73.2716 55.4563 71.3034 57.7873 71.3034C58.8445 71.3034 59.6055 71.7507 60.0679 72.6264C60.2506 72.9402 60.3829 73.1052 60.3829 72.9742C60.3829 72.5433 59.7051 71.6512 59.0927 71.2707C58.3493 70.8083 56.7781 70.7578 56.0019 71.1711C54.2493 72.1136 53.5046 74.1309 54.1989 76.1317C54.9435 78.3304 57.6223 79.6698 59.986 79.0297L60.829 78.8143L60.5152 79.3599C60.2506 79.7895 60.2002 80.0718 60.2834 80.6992C60.4648 81.9895 60.4321 82.4192 60.0516 83.4108C59.5737 84.7171 58.7454 85.8666 57.6576 86.7334C56.1859 87.9077 55.2106 88.2378 53.1102 88.2555C51.4407 88.2555 51.3248 88.2378 50.3382 87.6922C48.3373 86.6011 47.2638 84.8661 47.2638 82.7165C47.2638 81.7085 47.3457 81.3305 47.7099 80.6337C48.486 79.1117 50.1228 78.0873 51.7771 78.0873C52.5697 78.0873 53.9418 78.7488 54.471 79.3762C55.7776 80.9475 55.4135 83.4435 53.7276 84.3205C52.9716 84.7174 51.8263 84.6834 51.0325 84.221L50.3874 83.843L50.851 84.2726C52.237 85.5629 54.6537 84.9177 55.5786 83C56.7856 80.5203 54.5869 77.2796 51.694 77.2632C50.8042 77.2674 49.929 77.4897 49.145 77.9106C48.361 78.3314 47.6922 78.9381 47.197 79.6774C45.9244 81.5951 45.99 84.1403 47.3621 86.174C47.8422 86.8846 47.8422 86.9299 47.5939 87.4642C47.2638 88.1748 46.1727 88.9346 45.2125 89.1501C43.2621 89.5634 41.7085 88.4067 41.7085 86.5545C41.7085 85.5792 42.4846 84.7199 43.4725 84.5876C44.1163 84.5045 44.2285 84.5536 44.7615 85.0828C45.5061 85.8275 45.5389 86.5053 44.861 87.1996C44.299 87.7452 44.58 87.8435 45.2251 87.3483C46.1676 86.6036 46.1071 85.1156 45.0991 84.2235C44.7754 83.9253 44.3771 83.7202 43.9463 83.63C43.5156 83.5397 43.0684 83.5676 42.6522 83.7107C41.9403 83.9097 41.6442 84.1907 39.9571 86.1248C39.2628 86.9186 38.6505 87.4138 37.9726 87.7628C37.0906 88.2089 36.8487 88.2592 35.4274 88.2592C34.0414 88.2592 33.7566 88.2089 33.0132 87.812C30.4668 86.4726 29.8393 83.1008 31.7898 81.3318C32.8645 80.3729 34.0716 80.1738 35.2623 80.7698C36.453 81.3658 36.9973 82.4721 36.7327 83.6955C36.5349 84.5775 36.0549 85.0815 35.1628 85.3991C34.3854 85.6624 34.369 85.68 34.8982 85.6964C37.3779 85.7292 38.4199 82.3889 36.5185 80.4888C34.9801 78.9668 32.1703 79.0827 30.715 80.7522L30.2198 81.3154L30.2022 79.2477C30.2022 77.4296 30.153 77.049 29.7561 76.0083C29.2105 74.553 29.2105 74.3048 29.707 72.8003C30.2689 71.1472 31.0287 69.9565 32.3681 68.5844C34.9637 65.9232 38.4526 64.8321 42.0701 65.5427C45.0626 66.1211 47.8409 68.9157 48.5024 71.9687C49.2949 75.6555 46.8644 79.1772 43.029 79.9067C39.8311 80.514 36.739 78.0331 36.739 74.844C36.739 73.7201 37.0704 72.8936 37.8642 72.0834C39.4846 70.3975 41.8156 70.1934 43.4019 71.6033C43.9475 72.0834 44.0319 72.1325 43.8316 71.8024C43.6829 71.5706 43.1713 71.1409 42.6749 70.8435C41.832 70.3143 41.716 70.298 40.5417 70.3635C39.0537 70.4466 38.2435 70.8108 37.2657 71.8515C36.288 72.8923 36.0259 73.6369 36.0057 75.1086C35.9893 76.1998 36.0549 76.4946 36.5349 77.456C36.9785 78.3538 37.6273 79.1345 38.4287 79.7349C39.23 80.3353 40.1616 80.7387 41.1478 80.9122C43.6275 81.3746 46.6036 80.0856 48.2403 77.8882C49.3642 76.3497 49.678 75.3417 49.6944 73.2086C49.7107 71.0754 49.8771 70.7453 51.3147 69.3895C52.8028 68.0035 54.2253 67.3231 56.1758 67.1076C57.3993 66.9589 59.3006 67.3231 60.2758 67.9014C61.2183 68.447 62.4745 69.8355 62.8878 70.778C63.3906 71.883 63.4901 73.9494 63.1096 75.1225Z" fill="#4A4D4F"/>
<path d="M27.415 85.0752C26.7044 85.5716 25.1004 85.6535 24.4061 85.2238C23.0668 84.3809 23.0831 82.0663 24.4389 81.5535C25.9433 80.9751 27.2991 82.249 26.6376 83.5871C26.4725 83.9349 26.4725 83.9349 26.7208 83.6375C27.4982 82.6786 26.5053 81.0583 25.1672 81.0583C24.4225 81.0583 23.4473 81.5371 23.2772 81.9844C23.2268 82.1167 23.1121 82.1986 23.0252 82.1494C22.9382 82.1003 23.1247 81.6694 23.4221 81.2233C23.7523 80.7035 23.9977 80.1344 24.1491 79.5375C24.6128 77.3879 23.257 75.1564 21.1402 74.5932C19.7026 74.1963 18.0658 74.941 17.3879 76.264C17.0402 76.9582 16.957 78.0154 17.2216 78.4123C17.3539 78.595 17.3703 78.5383 17.2884 78.1981C17.0238 77.0565 17.7344 75.8041 18.9579 75.2547C19.3419 75.059 19.7668 74.957 20.1977 74.957C20.6287 74.957 21.0536 75.059 21.4376 75.2547C24.6947 76.7592 23.9349 81.4048 20.2481 82.4796C18.0482 83.1247 15.6844 81.934 14.5441 79.603C14.0641 78.6277 13.9985 78.343 13.9985 77.0905C13.9985 75.9162 14.0641 75.5357 14.4446 74.7419C14.9246 73.7011 16.1481 72.2962 17.0566 71.7179C18.7928 70.6267 21.1402 70.2802 23.0088 70.8422C25.8526 71.7015 28.2655 74.2807 29.0429 77.34C29.7359 80.0326 28.8867 84.0168 27.415 85.0752Z" fill="#4A4D4F"/>
<path d="M63.097 84.1693C78.1913 84.1693 90.4277 71.9329 90.4277 56.8386C90.4277 41.7443 78.1913 29.5079 63.097 29.5079C48.0027 29.5079 35.7664 41.7443 35.7664 56.8386C35.7664 71.9329 48.0027 84.1693 63.097 84.1693Z" fill="#4A4D4F"/>
<path d="M63.0971 85.176C56.5422 85.176 50.1902 82.9032 45.1232 78.7448C40.0562 74.5865 36.5879 68.7999 35.3091 62.371C34.0303 55.9421 35.0202 49.2687 38.1101 43.4878C41.2001 37.707 46.1988 33.1763 52.2547 30.6679C58.3106 28.1595 65.0489 27.8284 71.3215 29.7312C77.5941 31.634 83.0129 35.6528 86.6546 41.103C90.2962 46.5531 91.9355 53.0974 91.293 59.6206C90.6505 66.1439 87.766 72.2426 83.1311 76.8776C80.5063 79.5167 77.3841 81.6091 73.9453 83.0335C70.5064 84.4579 66.8192 85.1861 63.0971 85.176ZM63.0971 30.5146C48.5793 30.5146 36.7631 42.3259 36.7631 56.8486C36.7631 71.3714 48.5743 83.1826 63.0971 83.1826C77.6198 83.1826 89.4311 71.3714 89.4311 56.8486C89.4311 42.3259 77.616 30.5096 63.0971 30.5096V30.5146Z" fill="white"/>
<path d="M80.087 60.7648C79.7342 60.5455 76.7328 58.4867 77.2217 51.9624C77.2559 51.5019 77.1675 51.0406 76.9654 50.6254C76.7633 50.2101 76.4548 49.8559 76.0714 49.5987C76.3594 49.3075 76.5749 48.9527 76.7006 48.5629C76.8262 48.1731 76.8584 47.7592 76.7946 47.3546C76.7656 47.1732 76.7177 46.8897 76.6446 46.5394C76.954 46.3272 77.214 46.0509 77.407 45.7292C77.9941 44.7502 78.3066 43.1097 77.2558 41.7085C76.9332 41.2776 76.3624 40.5645 76.1331 40.2797C75.8779 39.9585 75.5516 39.7011 75.1799 39.5276C74.8081 39.3542 74.4011 39.2696 73.9911 39.2805C73.1444 38.4288 72.183 37.5757 71.3955 37.1776C70.8468 36.9002 70.2198 36.819 69.6185 36.9473C69.0173 37.0757 68.4781 37.4059 68.0905 37.8832C67.0757 37.7482 66.0432 37.8892 65.1018 38.2914C64.0081 37.7282 62.2983 37.3263 60.5343 38.1301C59.7039 37.8538 58.822 37.7677 57.9538 37.8781C57.5662 37.4006 57.0266 37.0703 56.4251 36.9421C55.8235 36.814 55.1962 36.8957 54.6476 37.1738C53.8613 37.5707 52.9 38.4237 52.0532 39.2755C51.6435 39.2649 51.2368 39.3494 50.8652 39.5223C50.4936 39.6952 50.167 39.9519 49.9112 40.2721C49.6807 40.5594 49.1086 41.2801 48.7873 41.7035C47.7365 43.1046 48.049 44.7451 48.6361 45.7242C48.8291 46.0458 49.0891 46.3222 49.3984 46.5343C49.3266 46.8846 49.2724 47.1643 49.2485 47.3496C49.1852 47.7498 49.216 48.1592 49.3384 48.5455C49.4609 48.9317 49.6717 49.2841 49.9541 49.5747C49.8898 49.6276 49.8281 49.6843 49.7688 49.7436C49.4855 50.0322 49.2732 50.3829 49.1488 50.7678C49.0243 51.1527 48.9912 51.5612 49.0519 51.9612C49.0607 52.0267 49.9415 58.4703 46.0153 60.693C45.5052 60.9814 45.1068 61.4328 44.8841 61.9748C44.6613 62.5168 44.627 63.1179 44.7868 63.6817C45.055 64.5907 45.3864 65.4799 45.7784 66.3428C46.8154 68.6108 48.0338 69.9703 49.503 70.5008C49.8388 70.6222 50.1959 70.6736 50.5524 70.652C50.9088 70.6303 51.257 70.536 51.5757 70.3748C52.6454 72.5647 54.485 75.0595 57.6149 76.6559C57.8343 76.7681 58.0684 76.8487 58.3104 76.8953C59.7606 77.1593 61.2325 77.2859 62.7065 77.2733C64.4341 77.2618 66.1594 77.144 67.8725 76.9205C68.2444 76.8763 68.6024 76.7525 68.9221 76.5576C70.1811 75.7503 71.3433 74.8012 72.3858 73.7289C73.3673 72.7401 74.2084 71.6213 74.8857 70.4038C75.3291 70.5984 75.8179 70.6661 76.2975 70.5994C76.7771 70.5326 77.2288 70.3341 77.6023 70.0258C77.9462 69.741 80.979 67.1278 81.4667 63.4297C81.6191 62.2869 81.1252 61.236 80.087 60.7648Z" fill="#4A4D4F"/>
<path d="M62.7177 77.7609C61.2131 77.7744 59.7107 77.6445 58.2308 77.3728C57.9431 77.3184 57.6648 77.2229 57.4043 77.0893C54.8112 75.7663 52.7775 73.7163 51.3563 70.9947C50.7023 71.2051 49.9971 71.1936 49.3503 70.9619C47.7527 70.3874 46.4435 68.9459 45.3486 66.5519C44.9458 65.6663 44.6056 64.7535 44.3305 63.8202C44.1397 63.1517 44.1796 62.4384 44.4438 61.7953C44.7081 61.1523 45.1813 60.617 45.7871 60.2759C49.407 58.2271 48.5906 52.0985 48.5817 52.0367C48.5166 51.5936 48.5479 51.1418 48.6734 50.7119C48.7988 50.282 49.0156 49.8842 49.3088 49.5457C48.8459 48.8865 48.6567 48.0735 48.7808 47.2777C48.801 47.1517 48.8325 46.9627 48.8753 46.7397C48.6215 46.5239 48.4041 46.2686 48.2315 45.9837C47.5674 44.8761 47.2146 43.0164 48.4104 41.4212C48.7216 41.0067 49.2546 40.3389 49.5444 39.9785C49.8228 39.628 50.1733 39.3414 50.5723 39.1384C50.9712 38.9353 51.4092 38.8205 51.8565 38.8017C52.8796 37.7874 53.7465 37.0969 54.4344 36.7491C54.873 36.529 55.3564 36.4128 55.8471 36.4093C56.3378 36.4058 56.8227 36.5152 57.2644 36.729C57.5985 36.8919 57.9013 37.1125 58.159 37.3804C58.9522 37.3084 59.7519 37.3884 60.5152 37.616C62.4959 36.792 64.2738 37.364 65.123 37.7622C66.0056 37.4246 66.9542 37.2953 67.895 37.3842C68.3668 36.8945 68.9831 36.5691 69.6535 36.4557C70.3239 36.3423 71.013 36.4469 71.6196 36.7542C72.3075 37.1019 73.1744 37.7912 74.1975 38.8067C74.6452 38.8257 75.0836 38.9408 75.483 39.144C75.8823 39.3473 76.2333 39.634 76.5122 39.9848C76.7427 40.2734 77.3173 40.9928 77.6462 41.4263C78.8419 43.0214 78.4904 44.8812 77.8251 45.99C77.6526 46.275 77.4351 46.5303 77.1812 46.746C77.2253 46.9715 77.2556 47.1567 77.2757 47.284C77.3991 48.0726 77.2141 48.8785 76.7591 49.5344C77.0895 49.8507 77.3458 50.2361 77.5098 50.663C77.6739 51.0899 77.7415 51.5478 77.7079 52.004C77.2493 58.12 79.9129 60.078 80.3211 60.3414C81.5106 60.9033 82.1343 62.1054 81.9528 63.4914C81.44 67.3785 78.2762 70.1001 77.9208 70.3974C77.5371 70.7175 77.0814 70.9397 76.5928 71.0448C76.1043 71.15 75.5975 71.1349 75.1161 71.001C74.452 72.1164 73.6548 73.1471 72.7422 74.0703C71.6702 75.1685 70.4764 76.1408 69.184 76.9683C68.8072 77.1994 68.3853 77.3471 67.9467 77.4018C66.2126 77.628 64.4664 77.7479 62.7177 77.7609ZM51.8061 69.7158L52.0241 70.1606C53.3584 72.8922 55.3177 74.9322 57.8465 76.2224C58.0253 76.3141 58.2162 76.3799 58.4135 76.4177C59.8333 76.6767 61.2745 76.8003 62.7177 76.7869C64.4246 76.7749 66.1292 76.6588 67.8219 76.4391C68.1226 76.4019 68.4118 76.3005 68.6699 76.1418C69.8945 75.3559 71.025 74.4321 72.0392 73.3887C72.9916 72.4322 73.8081 71.3494 74.4659 70.1706L74.6789 69.7788L75.0884 69.9577C75.4494 70.1166 75.8476 70.1717 76.2383 70.1167C76.6289 70.0618 76.9965 69.8989 77.2997 69.6465C77.6285 69.3731 80.5278 66.8745 80.9915 63.3616C81.1175 62.4027 80.6954 61.5762 79.889 61.2057L79.836 61.178C79.4606 60.9487 76.2299 58.7412 76.7339 51.9258C76.761 51.5511 76.6887 51.1759 76.5243 50.8381C76.3599 50.5002 76.1093 50.2118 75.7977 50.0018L75.3114 49.6742L75.7221 49.2572C75.9556 49.0196 76.1305 48.7309 76.2328 48.414C76.3352 48.0971 76.3622 47.7606 76.3118 47.4314C76.2841 47.2601 76.2375 46.9854 76.1657 46.6389L76.1001 46.3214L76.3673 46.1387C76.6189 45.9656 76.8303 45.7405 76.9872 45.4784C77.4912 44.6292 77.7709 43.2104 76.8612 42.0008C76.5437 41.5762 75.9792 40.8668 75.7486 40.5846C75.5404 40.3227 75.2744 40.1125 74.9714 39.9706C74.6684 39.8288 74.3367 39.759 74.0022 39.7668H73.7931L73.6457 39.6182C72.6477 38.6102 71.7947 37.9197 71.1761 37.6022C70.7267 37.3743 70.2127 37.3074 69.7199 37.4126C69.2272 37.5179 68.7854 37.7889 68.4683 38.1805L68.2995 38.3871L68.0349 38.3556C67.1063 38.2306 66.1613 38.3586 65.2994 38.7261L65.0865 38.8206L64.8786 38.7135C64.2486 38.3884 62.5791 37.7219 60.7357 38.5635L60.5593 38.6429L60.3753 38.5799C59.6132 38.3297 58.8047 38.2531 58.0091 38.3556L57.7445 38.3871L57.5819 38.1906C57.2646 37.7989 56.8226 37.5278 56.3296 37.4226C55.8367 37.3173 55.3225 37.3843 54.8729 37.6122C54.2555 37.9247 53.4025 38.6202 52.4046 39.6282L52.2572 39.7769H52.048C51.7137 39.7676 51.3819 39.8365 51.079 39.978C50.776 40.1195 50.5103 40.3298 50.3029 40.5921C50.0723 40.8794 49.5028 41.5913 49.1891 42.0109C48.2831 43.218 48.5591 44.6393 49.0631 45.4885C49.2195 45.7508 49.431 45.9761 49.683 46.1487L49.9501 46.3314L49.8833 46.649C49.8128 46.9892 49.7649 47.2676 49.7384 47.4415C49.6856 47.7671 49.71 48.1006 49.8096 48.415C49.9092 48.7295 50.0812 49.0162 50.3117 49.2521L50.6733 49.6301L50.2739 49.9514C50.216 50.0006 50.1668 50.0459 50.124 50.0888C49.8923 50.3229 49.7187 50.6081 49.6171 50.9214C49.5156 51.2348 49.4889 51.5676 49.5393 51.8931C49.5507 51.9649 50.4743 58.7374 46.2633 61.1213C45.8476 61.3553 45.5228 61.7225 45.3413 62.1637C45.1598 62.6049 45.1322 63.0943 45.2629 63.5531C45.5249 64.4403 45.8487 65.308 46.2318 66.15C47.2121 68.292 48.3398 69.5684 49.6792 70.056C49.953 70.1535 50.2437 70.1943 50.5338 70.1759C50.8238 70.1575 51.1071 70.0803 51.3663 69.9489L51.8061 69.7158Z" fill="white"/>
<path d="M58.8836 73.9381C61.4036 74.4206 64.3809 74.3413 67.6292 73.9381C67.6292 73.9381 73.5071 70.337 73.6545 65.3398L76.0057 67.6179C76.0057 67.6179 78.5786 65.4872 78.9453 62.6951C78.9453 62.6951 74.0225 60.1965 74.684 51.3778L72.038 50.6432C72.038 50.6432 73.6545 54.5379 73.1405 57.4774C72.6264 60.417 72.4424 58.7261 72.4424 58.7261C72.4424 58.7261 71.8364 57.514 71.2668 58.8181C70.6973 60.1222 71.064 63.9248 71.064 63.9248C71.064 63.9248 68.4003 59.5149 65.3322 61.0596C65.3322 61.0596 63.5506 62.2541 65.9207 62.4746C65.9207 62.4746 68.3638 63.7963 68.6763 67.2134L66.7472 69.7675C66.7472 69.7675 67.5183 66.8833 65.4608 66.3655C65.4608 66.3655 64.3268 65.263 62.4481 65.777C62.4481 65.777 63.3666 66.029 64.2121 66.9892C64.2121 66.9892 59.1784 66.8065 60.354 70.6646C60.354 70.6646 56.8625 68.7166 57.8919 66.0341C58.9214 63.3516 58.0016 65.8879 58.0016 65.8879C58.0016 65.8879 58.8105 62.8009 61.0155 62.2868C61.0155 62.2868 62.6321 61.9555 61.052 60.9273C61.052 60.9273 57.8189 59.6774 55.508 63.9034V59.6081C55.508 59.6081 54.3324 56.7794 54.0023 59.2402C54.0023 59.2402 52.4903 56.9999 53.6709 53.3623L54.0338 50.904C54.0338 50.904 53.4038 51.4181 51.7192 51.1976C51.7192 51.1976 52.9679 59.4279 47.3835 62.588C47.3835 62.588 48.6322 66.998 50.4693 67.6582L52.8217 65.1597C52.8217 65.1597 53.5563 71.219 58.8836 73.9381Z" fill="white"/>
<path d="M60.1423 65.3222C60.1423 65.3222 62.7694 63.4473 66.1903 65.3222V64.2738C66.1903 64.2738 63.2508 61.6845 60.1423 64.2738V65.3222Z" fill="#EAD053"/>
<path d="M62.273 60.9399H63.9539C63.9539 60.9399 64.6985 59.4796 66.1866 59.5627L65.772 58.4048C65.772 58.4048 65.4961 57.9915 64.9732 58.4048C64.4503 58.8181 64.4213 59.0348 64.4213 59.0348C64.4213 59.0348 64.284 57.6022 64.6973 56.7479C64.6973 56.7479 64.9178 55.6454 64.0912 55.1212C63.5063 55.3498 62.8567 55.3498 62.2718 55.1212C62.2718 55.1212 61.4175 55.3732 61.6657 56.9407C61.9139 58.5081 62.0248 58.9252 62.0248 58.9252L61.3079 58.3733C61.3079 58.3733 60.756 57.7118 60.4813 58.5106C60.2066 59.3095 60.2885 59.5589 60.2885 59.5589L61.0596 59.724C61.0596 59.724 62.0802 60.2507 62.273 60.9399Z" fill="#EAD053"/>
<path d="M68.9359 59.0587C68.9359 59.0587 69.3504 56.9885 70.0132 56.5462L68.9359 56.322C68.9359 56.322 70.6205 54.9964 71.4483 54.7482C71.4483 54.7482 71.8893 54.6109 71.4483 54.2795L71.2278 53.1745C71.2278 53.1745 70.4819 52.0984 69.7372 52.8431C69.7372 52.8431 69.3782 53.4504 69.3782 53.8372C69.3782 53.8372 66.7322 54.3891 66.3138 55.1073C65.8955 55.8255 66.4247 58.6719 68.9359 59.0587Z" fill="#EAD053"/>
<path d="M57.6525 59.0587C57.6525 59.0587 57.238 56.9885 56.5752 56.5462L57.6525 56.3257C57.6525 56.3257 55.9679 55.0002 55.1401 54.752C55.1401 54.752 54.6991 54.6147 55.1401 54.2833L55.3606 53.1783C55.3606 53.1783 56.1065 52.1022 56.8512 52.8469C56.8512 52.8469 57.2103 53.4542 57.2103 53.841C57.2103 53.841 59.8563 54.3929 60.2746 55.1111C60.6929 55.8293 60.1637 58.6719 57.6525 59.0587Z" fill="#EAD053"/>
<path d="M70.264 50.1669C70.264 50.1669 68.442 50.167 67.4479 51.6021C67.4479 51.6021 66.3441 52.5118 65.4054 52.5269C64.4667 52.5421 64.1341 51.3463 64.1341 51.3463C64.1341 51.3463 64.245 52.4576 63.2521 52.5269C63.2521 52.5269 62.2592 52.5824 62.3134 51.3476C62.3134 51.3476 61.6519 52.8999 60.6577 52.5269C60.6577 52.5269 60.0504 52.5849 58.6153 51.3766C57.1801 50.1682 56.0751 50.1669 56.0751 50.1669C56.0751 50.1669 53.8676 48.0325 58.7211 49.8179C58.7211 49.8179 57.7824 48.1799 55.8508 47.7931C55.8508 47.7931 58.2247 47.1858 59.7707 46.358C59.7707 46.358 60.2117 46.6339 59.5502 47.5726C59.5502 47.5726 61.2058 48.1799 65.2366 45.6398C65.2366 45.6398 67.6104 47.3521 70.2602 47.6281C70.2602 47.6281 67.9922 48.9158 67.6142 49.8179C67.6142 49.8179 69.1048 48.9359 70.2602 49.1123C70.264 49.1123 71.3677 49.0632 70.264 50.1669Z" fill="#EAD053"/>
<path d="M75.2335 43.9941C75.2335 43.9941 75.6026 43.3792 75.2335 42.8878C74.9311 42.4834 74.3514 41.7677 74.1637 41.5258C74.1574 41.5183 74.1491 41.5128 74.1398 41.5096C74.1306 41.5065 74.1206 41.5059 74.1111 41.508C74.1015 41.5101 74.0927 41.5147 74.0855 41.5214C74.0784 41.528 74.0732 41.5365 74.0705 41.5459L73.8185 42.4884C73.8185 42.4884 71.4396 39.7038 70.2905 39.1229C70.2791 39.1173 70.2667 39.1143 70.254 39.1143C70.2413 39.1142 70.2288 39.1171 70.2174 39.1227C70.2061 39.1284 70.1962 39.1365 70.1885 39.1466C70.1809 39.1567 70.1756 39.1685 70.1733 39.1809L70.0095 39.9999L70.8688 41.2284C70.8688 41.2284 67.9809 39.3548 66.0808 40.3691C66.0808 40.3691 67.5563 43.6249 71.427 43.0151L72.2876 44.2436C72.2876 44.2436 69.8293 42.4418 67.1568 44.5208C67.1568 44.5208 69.1842 46.3024 71.7962 45.6271C71.7962 45.6271 70.8134 46.8253 71.0591 47.3785C71.0591 47.3785 71.5202 48.2378 74.2847 47.3785C74.2847 47.3785 73.855 44.6569 72.9642 43.4208C72.9604 43.417 73.0524 42.8261 75.2335 43.9941Z" fill="#EAD053"/>
<path d="M60.116 43.6956C60.116 43.6956 61.8913 44.1794 62.0979 45.8615C62.0979 45.8615 64.7439 45.1937 65.1396 43.3037C65.1396 43.3037 65.5176 43.8795 66.077 44.1101C66.077 44.1101 66.1312 41.7161 62.859 40.9072C62.859 40.9072 63.1589 40.3767 64.2639 40.4032C64.2639 40.4032 62.8779 39.365 61.3835 40.2873C61.3835 40.2873 62.0526 40.4032 62.0286 40.9551C62.0047 41.507 61.2223 42.4079 61.2223 42.4079C61.2223 42.4079 62.6511 43.397 62.3751 43.9274C62.0446 43.7107 61.6669 43.5766 61.2738 43.5362C60.8807 43.4959 60.4836 43.5505 60.116 43.6956Z" fill="#EAD053"/>
<path d="M50.9594 43.9942C50.9594 43.9942 50.5915 43.3793 50.9594 42.8879C51.2631 42.4835 51.8414 41.7678 52.0304 41.5259C52.0368 41.5184 52.045 41.5128 52.0543 41.5097C52.0636 41.5066 52.0735 41.506 52.0831 41.5081C52.0926 41.5102 52.1014 41.5148 52.1086 41.5215C52.1157 41.5281 52.1209 41.5366 52.1237 41.546L52.3757 42.4885C52.3757 42.4885 54.7545 39.7039 55.9037 39.123C55.9151 39.1174 55.9276 39.1144 55.9404 39.1144C55.9531 39.1143 55.9657 39.1172 55.9772 39.1228C55.9886 39.1284 55.9986 39.1366 56.0064 39.1467C56.0142 39.1568 56.0196 39.1685 56.0221 39.181L56.1859 40L55.3253 41.2285C55.3253 41.2285 58.2132 39.3549 60.1133 40.3692C60.1133 40.3692 58.6391 43.625 54.7671 43.0152L53.9066 44.2437C53.9066 44.2437 56.3648 42.4419 59.0385 44.5209C59.0385 44.5209 57.0099 46.3025 54.3992 45.6272C54.3992 45.6272 55.382 46.8254 55.1363 47.3786C55.1363 47.3786 54.6752 48.2379 51.9095 47.3786C51.9095 47.3786 52.3404 44.657 53.2312 43.4209C53.2337 43.4171 53.1417 42.8262 50.9594 43.9942Z" fill="#EAD053"/>
<path d="M8.34881 104.157C4.00559 104.157 2.98877 101.499 2.98877 99.7164V99.3573C2.98877 97.5504 3.99677 94.9662 8.34881 94.9662H8.89943C13.1116 94.9662 14.1536 96.9645 14.1536 98.5685V98.6277H11.214C11.1788 98.4009 10.9154 97.2039 8.62979 97.2039C6.52307 97.2039 5.97371 98.4123 5.97371 99.4417V99.5967C5.97371 100.567 6.53567 101.895 8.64113 101.895C10.9268 101.895 11.1788 100.687 11.214 100.447H14.1587V100.519C14.1587 102.031 13.1406 104.157 8.90447 104.157H8.34881Z" fill="#4A4D4F"/>
<path d="M18.8546 100.8L14.3186 95.1161H17.8239L20.3855 98.4551L22.9584 95.1161H26.0946L21.7022 100.813V104.013H18.8546V100.8Z" fill="#4A4D4F"/>
<path d="M27.0383 95.1099H34.02C36.569 95.1099 37.2746 96.1506 37.2746 97.204V97.3111C37.2746 98.4728 36.2577 98.9995 35.5874 99.094C36.5576 99.2502 37.742 99.8008 37.742 101.296V101.416C37.742 102.757 36.9281 104.013 34.0439 104.013H27.0383V95.1099ZM29.8985 97.0843V98.5207H33.3686C34.0868 98.5207 34.3022 98.2095 34.3022 97.8138V97.7899C34.3022 97.3716 34.0868 97.0843 33.3686 97.0843H29.8985ZM29.8985 100.36V101.94H33.5966C34.4585 101.94 34.65 101.521 34.65 101.139V101.091C34.65 100.695 34.4585 100.36 33.5966 100.36H29.8985Z" fill="#4A4D4F"/>
<path d="M47.88 95.1099V97.1561H42.1873V98.4489H47.7036V100.567H42.1873V101.943H47.9556V104.013H39.3511V95.1099H47.88Z" fill="#4A4D4F"/>
<path d="M60.2684 101.943V103.103C60.2684 103.665 60.3276 103.822 60.4121 103.953V104.013H57.4561C57.4196 103.953 57.3843 103.798 57.3843 103.426V102.69C57.3843 101.541 56.9647 101.121 55.7085 101.121H52.7046V104.019H49.8457V95.1099H56.4481C59.7632 95.1099 60.1941 96.4505 60.1941 97.5152V97.6223C60.1941 98.808 59.3121 99.501 58.2549 99.729C59.4419 99.9558 60.2684 100.602 60.2684 101.943ZM52.7084 98.9277H56.0701C56.9912 98.9277 57.2192 98.532 57.2192 98.0772V98.0532C57.2192 97.6223 56.9912 97.2405 56.0701 97.2405H52.7046L52.7084 98.9277Z" fill="#4A4D4F"/>
<path d="M71.3235 94.9662C75.7751 94.9662 76.8675 97.4673 76.8675 99.3573V99.7164C76.8675 101.584 75.7902 104.157 71.3235 104.157H70.7842C66.3339 104.157 65.2402 101.584 65.2402 99.7164V99.3573C65.2402 97.4673 66.3301 94.9662 70.7842 94.9662H71.3235ZM73.8838 99.453C73.8838 98.4841 73.429 97.1913 71.0602 97.1913C68.6914 97.1913 68.2239 98.4841 68.2239 99.453V99.6093C68.2239 100.578 68.7279 101.906 71.0602 101.906C73.429 101.906 73.8838 100.578 73.8838 99.6093V99.453Z" fill="#4A4D4F"/>
<path d="M81.4337 95.1099V101.691H86.8139V104.013H78.5735V95.1099H81.4337Z" fill="#4A4D4F"/>
<path d="M89.9173 100.8L85.3813 95.1161H88.8867L91.4483 98.4551L94.0212 95.1161H97.156L92.7649 100.813V104.013H89.9173V100.8Z" fill="#4A4D4F"/>
<path d="M98.1011 95.1099H101.979L104.599 100.654L107.28 95.1099H110.966V104.013H108.166V98.3292L105.497 104.013H103.51L100.854 98.3292V104.013H98.1011V95.1099Z" fill="#4A4D4F"/>
<path d="M115.93 101.261V104.013H113.071V95.1099H119.341C122.404 95.1099 123.278 96.3421 123.278 98.0898V98.2334C123.278 99.9684 122.38 101.257 119.341 101.257L115.93 101.261ZM115.93 99.1305H119.101C119.999 99.1305 120.31 98.7601 120.31 98.1969V98.1616C120.31 97.6349 119.999 97.2519 119.101 97.2519H115.93V99.1305Z" fill="#4A4D4F"/>
</svg>
