<svg width="281" height="187" viewBox="0 0 281 187" fill="none" xmlns="http://www.w3.org/2000/svg">
<path d="M191.805 125.551L181.319 111.548L281 74.7831L223.672 118.279L240.13 130.744L129.119 172.216L191.805 125.551Z" fill="#E8E6E8"/>
<path d="M253.388 87.5844L191.672 110.464L206.154 121.15L161.859 152.732L230.991 126.774L216.39 115.751L253.388 87.5844Z" fill="#EAD053"/>
<path d="M184.83 77.9455L165.472 72.0578L247.002 4.0061L207.628 64.1974L227.325 70.4219L136.705 146.704L184.83 77.9455Z" fill="#E8E6E8"/>
<path d="M225.298 25.3234L174.858 67.5662L192.094 72.7771L160.989 117.375L217.381 69.7453L199.92 64.2582L225.298 25.3234Z" fill="#EAD053"/>
<path d="M83.4293 122.17L99.6836 110.134L0 73.3689L57.3307 116.865L40.8697 129.329L151.881 170.801L83.4293 122.17Z" fill="#E8E6E8"/>
<path d="M27.6147 86.1702L89.3281 109.047L74.8458 119.736L119.144 151.314L50.0085 125.357L64.6124 114.337L27.6147 86.1702Z" fill="#EAD053"/>
<path d="M99.6137 73.9394L118.971 68.0517L37.4414 0L76.8158 60.1913L57.118 66.4128L147.738 142.698L99.6137 73.9394Z" fill="#E8E6E8"/>
<path d="M59.145 21.3142L109.586 63.557L92.3496 68.768L123.454 113.366L67.0625 65.7361L84.5233 60.252L59.145 21.3142Z" fill="#EAD053"/>
<path d="M137.261 153.011C138.219 155.8 141.292 158.944 144.003 159.861C146.635 160.738 150.385 160.738 152.458 159.782C154.412 158.871 156.713 156.276 157.321 154.207C159.038 148.553 155.728 143.812 150.103 143.812C147.553 143.812 145.717 144.889 144.601 146.999C144.161 147.754 143.842 148.152 143.842 147.836C143.842 146.798 145.477 144.65 146.954 143.733C148.747 142.619 152.537 142.498 154.412 143.493C158.637 145.764 160.433 150.622 158.759 155.442C156.962 160.738 150.504 163.964 144.799 162.422L142.766 161.903L143.522 163.217C144.161 164.252 144.282 164.932 144.082 166.443C143.644 169.551 143.723 170.586 144.641 172.974C145.795 176.12 147.792 178.889 150.416 180.978C153.966 183.806 156.318 184.601 161.385 184.644C165.412 184.644 165.691 184.601 168.071 183.287C172.916 180.647 175.523 176.468 175.523 171.29C175.523 168.862 175.323 167.952 174.444 166.273C172.572 162.607 168.624 160.14 164.637 160.14C162.722 160.14 159.412 161.733 158.135 163.245C154.984 167.029 155.862 173.041 159.929 175.154C161.752 176.11 164.515 176.028 166.43 174.914L167.986 174.003L166.867 175.038C163.524 178.146 157.698 176.592 155.464 171.973C152.552 166 157.856 158.195 164.834 158.155C166.98 158.165 169.092 158.701 170.983 159.714C172.874 160.728 174.487 162.189 175.681 163.97C178.754 168.589 178.593 174.72 175.283 179.618C174.125 181.33 174.125 181.439 174.724 182.726C175.523 184.437 178.156 186.267 180.468 186.786C185.173 187.782 188.921 184.996 188.921 180.534C188.921 178.185 187.049 176.116 184.666 175.797C183.113 175.597 182.842 175.715 181.556 176.99C179.763 178.783 179.681 180.416 181.316 182.088C182.672 183.402 181.994 183.639 180.441 182.446C178.168 180.653 178.314 177.069 180.745 174.92C181.526 174.202 182.487 173.708 183.526 173.49C184.565 173.273 185.643 173.34 186.647 173.685C188.362 174.164 189.079 174.841 193.145 179.5C194.82 181.412 196.297 182.604 197.932 183.445C200.045 184.519 200.643 184.641 204.072 184.641C207.415 184.641 208.102 184.519 209.895 183.563C216.038 180.337 217.551 172.216 212.846 167.955C210.254 165.645 207.342 165.166 204.473 166.601C201.604 168.037 200.285 170.701 200.923 173.648C201.4 175.773 202.558 176.987 204.71 177.751C206.585 178.386 206.625 178.428 205.348 178.468C199.367 178.547 196.856 170.501 201.44 165.924C205.151 162.258 211.928 162.537 215.439 166.559L216.636 167.915L216.676 162.935C216.676 158.556 216.794 157.639 217.752 155.132C219.068 151.627 219.068 151.029 217.87 147.405C216.515 143.424 214.682 140.556 211.451 137.251C205.19 130.841 196.774 128.213 188.048 129.924C180.83 131.317 174.128 138.049 172.548 145.402C170.633 154.283 176.499 162.765 185.748 164.522C193.413 165.997 200.871 160.022 200.871 152.34C200.871 149.633 200.072 147.642 198.16 145.691C194.252 141.63 188.629 141.138 184.787 144.534C183.471 145.691 183.268 145.809 183.751 145.014C184.11 144.455 185.347 143.421 186.541 142.704C188.574 141.43 188.854 141.39 191.687 141.548C195.276 141.748 197.23 142.625 199.589 145.132C201.947 147.639 202.579 149.433 202.628 152.978C202.668 155.606 202.51 156.316 201.352 158.632C200.282 160.794 198.717 162.675 196.784 164.121C194.851 165.568 192.604 166.539 190.225 166.956C184.243 168.07 177.064 164.965 173.116 159.673C170.405 155.967 169.648 153.539 169.609 148.401C169.569 143.263 169.168 142.468 165.7 139.202C162.111 135.864 158.683 134.225 153.975 133.706C151.023 133.348 146.437 134.225 144.085 135.618C141.811 136.932 138.781 140.276 137.784 142.547C136.584 145.208 136.347 150.185 137.261 153.011Z" fill="#E8E6E8"/>
<path d="M223.362 176.984C225.076 178.179 228.945 178.377 230.62 177.342C233.851 175.311 233.811 169.736 230.541 168.501C226.912 167.108 223.642 170.176 225.237 173.399C225.635 174.237 225.635 174.237 225.037 173.521C223.164 171.211 225.556 167.308 228.787 167.308C230.58 167.308 232.933 168.462 233.346 169.539C233.468 169.858 233.747 170.055 233.954 169.937C234.161 169.818 233.717 168.78 232.997 167.706C232.2 166.454 231.608 165.083 231.243 163.645C230.128 158.468 233.398 153.093 238.501 151.736C241.972 150.78 245.92 152.574 247.555 155.761C248.391 157.433 248.591 159.979 247.953 160.935C247.634 161.375 247.595 161.239 247.792 160.419C248.43 157.669 246.716 154.653 243.765 153.33C242.839 152.858 241.814 152.612 240.774 152.612C239.735 152.612 238.71 152.858 237.784 153.33C229.927 156.953 231.763 168.143 240.656 170.732C245.959 172.286 251.661 169.418 254.412 163.803C255.57 161.454 255.728 160.768 255.728 157.751C255.728 154.923 255.57 154.006 254.652 152.094C253.497 149.588 250.546 146.204 248.351 144.811C244.163 142.182 238.501 141.348 233.994 142.701C227.137 144.771 221.314 150.984 219.438 158.352C217.77 164.838 219.812 174.434 223.362 176.984Z" fill="#E8E6E8"/>
<path d="M140.532 153.011C139.575 155.8 136.505 158.944 133.791 159.861C131.159 160.738 127.408 160.738 125.338 159.782C123.384 158.871 121.083 156.276 120.475 154.207C118.761 148.553 122.071 143.812 127.694 143.812C130.244 143.812 132.08 144.889 133.195 146.999C133.636 147.754 133.955 148.152 133.955 147.836C133.955 146.798 132.32 144.65 130.843 143.733C129.049 142.619 125.259 142.498 123.387 143.493C119.159 145.763 117.363 150.622 119.038 155.442C120.834 160.738 127.296 163.964 132.997 162.422L135.031 161.903L134.274 163.217C133.636 164.252 133.514 164.932 133.715 166.443C134.152 169.551 134.073 170.586 133.155 172.974C132.003 176.121 130.005 178.89 127.381 180.977C123.831 183.806 121.478 184.601 116.412 184.644C112.385 184.644 112.105 184.601 109.725 183.287C104.899 180.659 102.309 176.48 102.309 171.302C102.309 168.874 102.507 167.964 103.385 166.286C105.258 162.619 109.206 160.152 113.196 160.152C115.108 160.152 118.418 161.745 119.694 163.257C122.846 167.041 121.968 173.053 117.901 175.166C116.078 176.122 113.315 176.04 111.4 174.926L109.844 174.015L110.962 175.05C114.306 178.158 120.135 176.604 122.366 171.985C125.278 166.012 119.974 158.207 112.996 158.167C110.849 158.177 108.738 158.713 106.847 159.726C104.956 160.74 103.343 162.201 102.148 163.982C99.0786 168.601 99.2367 174.732 102.546 179.63C103.704 181.342 103.704 181.451 103.106 182.738C102.309 184.449 99.6773 186.279 97.3614 186.798C92.6565 187.794 88.909 185.008 88.909 180.547C88.909 178.198 90.7813 176.128 93.1641 175.809C94.7172 175.609 94.9877 175.727 96.2733 177.002C98.0695 178.795 98.1486 180.428 96.5134 182.1C95.1579 183.415 95.8356 183.651 97.3918 182.459C99.6652 180.665 99.5193 177.081 97.0878 174.932C96.307 174.214 95.3461 173.72 94.3071 173.502C93.268 173.285 92.1894 173.352 91.1855 173.697C89.4683 174.176 88.754 174.853 84.6844 179.512C83.0097 181.424 81.5326 182.616 79.8974 183.457C77.7699 184.531 77.1864 184.653 73.758 184.653C70.4148 184.653 69.7279 184.531 67.9347 183.575C61.7922 180.349 60.2786 172.228 64.9835 167.967C67.576 165.657 70.4877 165.178 73.3599 166.613C76.232 168.049 77.545 170.713 76.9068 173.66C76.4296 175.785 75.2716 176.999 73.1198 177.764C71.2445 178.398 71.205 178.44 72.4815 178.48C78.4629 178.559 80.9764 170.513 76.3901 165.936C72.6791 162.27 65.9014 162.55 62.391 166.571L61.1965 167.927L61.154 162.947C61.154 158.568 61.0354 157.651 60.078 155.144C58.762 151.639 58.762 151.041 59.9595 147.418C61.315 143.436 63.1478 140.568 66.3786 137.263C72.6396 130.853 81.0554 128.225 89.7813 129.936C96.9997 131.329 103.701 138.061 105.297 145.414C107.209 154.295 101.346 162.777 92.0942 164.534C84.3804 165.997 76.922 160.021 76.922 152.34C76.922 149.633 77.7213 147.642 79.6361 145.691C83.5446 141.63 89.1674 141.138 92.9939 144.534C94.3099 145.691 94.5135 145.809 94.0303 145.014C93.6716 144.455 92.4377 143.421 91.2402 142.704C89.2069 141.43 88.9273 141.39 86.0946 141.548C82.5052 141.748 80.5509 142.625 78.1924 145.132C75.8339 147.639 75.2017 149.433 75.1531 152.977C75.1136 155.606 75.2716 156.316 76.4296 158.631C77.4996 160.794 79.0645 162.674 80.9976 164.121C82.9307 165.567 85.1776 166.538 87.5565 166.956C93.5379 168.07 100.717 164.965 104.665 159.672C107.376 155.967 108.133 153.539 108.172 148.401C108.212 143.263 108.613 142.468 112.081 139.202C115.67 135.864 119.102 134.225 123.807 133.706C126.758 133.348 131.344 134.225 133.696 135.618C135.97 136.932 139 140.276 139.997 142.546C141.21 145.208 141.45 150.185 140.532 153.011Z" fill="#E8E6E8"/>
<path d="M54.4311 176.984C52.7169 178.179 48.8478 178.377 47.1732 177.342C43.9424 175.311 43.9819 169.736 47.2522 168.501C50.8811 167.108 54.1514 170.176 52.5558 173.399C52.1576 174.237 52.1576 174.237 52.7564 173.521C54.6316 171.211 52.2367 167.308 49.0089 167.308C47.2127 167.308 44.8602 168.462 44.4499 169.539C44.3283 169.858 44.0518 170.055 43.8421 169.937C43.6323 169.818 44.0822 168.78 44.7994 167.706C45.5959 166.454 46.1879 165.083 46.5531 163.645C47.6716 158.468 44.4013 153.093 39.2952 151.736C35.8274 150.78 31.8793 152.574 30.2441 155.761C29.4053 157.433 29.2047 159.979 29.8429 160.935C30.1621 161.375 30.2016 161.239 30.004 160.419C29.3658 157.669 31.0799 154.653 34.0311 153.33C34.9574 152.858 35.9822 152.612 37.0218 152.612C38.0614 152.612 39.0863 152.858 40.0125 153.33C47.8692 156.953 46.0364 168.143 37.1434 170.732C31.8367 172.286 26.135 169.418 23.3844 163.803C22.2264 161.454 22.0684 160.768 22.0684 157.751C22.0684 154.923 22.2264 154.006 23.1443 152.094C24.3023 149.588 27.2534 146.204 29.4448 144.811C33.633 142.182 39.2952 141.348 43.8025 142.701C50.6623 144.771 56.4826 150.984 58.3579 158.352C60.0295 164.838 57.981 174.434 54.4311 176.984Z" fill="#E8E6E8"/>
<path d="M140.502 174.801C176.911 174.801 206.428 145.328 206.428 108.971C206.428 72.6144 176.911 43.1412 140.502 43.1412C104.092 43.1412 74.5757 72.6144 74.5757 108.971C74.5757 145.328 104.092 174.801 140.502 174.801Z" fill="#4A4D4F"/>
<path d="M140.501 177.226C124.69 177.226 109.368 171.752 97.1457 161.736C84.9233 151.72 76.5571 137.782 73.4725 122.297C70.3878 106.812 72.7756 90.7381 80.229 76.814C87.6824 62.8899 99.7403 51.9772 114.348 45.9353C128.956 39.8934 145.21 39.096 160.34 43.6791C175.471 48.2622 188.542 57.9422 197.326 71.0698C206.11 84.1973 210.064 99.9601 208.515 115.672C206.965 131.385 200.007 146.074 188.827 157.238C182.495 163.595 174.964 168.635 166.669 172.066C158.374 175.497 149.48 177.251 140.501 177.226ZM140.501 45.5661C105.482 45.5661 76.9797 74.0153 76.9797 108.996C76.9797 143.976 105.47 172.425 140.501 172.425C175.533 172.425 204.023 143.976 204.023 108.996C204.023 74.0153 175.524 45.554 140.501 45.554V45.5661Z" fill="white"/>
<path d="M181.484 118.428C180.633 117.9 173.393 112.941 174.572 97.2262C174.655 96.117 174.442 95.0058 173.954 94.0057C173.467 93.0056 172.723 92.1523 171.797 91.5328C172.492 90.8315 173.012 89.9769 173.315 89.0379C173.618 88.099 173.696 87.102 173.542 86.1276C173.472 85.6906 173.357 85.0077 173.18 84.164C173.926 83.6529 174.554 82.9873 175.019 82.2126C176.435 79.8544 177.189 75.903 174.654 72.5282C173.876 71.4902 172.5 69.7725 171.946 69.0866C171.331 68.313 170.544 67.6929 169.647 67.2752C168.75 66.8575 167.769 66.6537 166.78 66.6799C164.737 64.6283 162.418 62.5737 160.519 61.6147C159.195 60.9466 157.683 60.7509 156.232 61.0601C154.782 61.3693 153.481 62.1647 152.546 63.3142C150.098 62.9892 147.608 63.3288 145.337 64.2975C142.699 62.9409 138.575 61.9728 134.32 63.9091C132.317 63.2435 130.189 63.036 128.095 63.3021C127.16 62.1519 125.859 61.3562 124.408 61.0476C122.956 60.7389 121.443 60.9358 120.12 61.6056C118.223 62.5616 115.904 64.6162 113.862 66.6678C112.874 66.6423 111.893 66.8457 110.996 67.2622C110.1 67.6787 109.312 68.297 108.695 69.0684C108.139 69.7604 106.759 71.4963 105.984 72.5161C103.449 75.8909 104.203 79.8423 105.619 82.2004C106.085 82.9752 106.712 83.6408 107.458 84.1519C107.285 84.9956 107.154 85.6693 107.096 86.1155C106.944 87.0794 107.018 88.0657 107.313 88.996C107.609 89.9263 108.117 90.7751 108.798 91.4751C108.643 91.6026 108.494 91.7391 108.352 91.8818C107.668 92.5771 107.156 93.4217 106.856 94.3488C106.556 95.2758 106.476 96.2599 106.622 97.2232C106.644 97.381 108.768 112.902 99.2975 118.255C98.0671 118.95 97.1061 120.037 96.5688 121.343C96.0314 122.648 95.9488 124.096 96.3342 125.454C96.9811 127.643 97.7804 129.785 98.7261 131.864C101.227 137.326 104.167 140.601 107.71 141.879C108.52 142.171 109.382 142.295 110.242 142.243C111.101 142.191 111.941 141.963 112.71 141.575C115.29 146.85 119.728 152.859 127.278 156.704C127.807 156.974 128.372 157.169 128.955 157.281C132.453 157.917 136.004 158.222 139.559 158.191C143.727 158.164 147.888 157.88 152.021 157.342C152.918 157.235 153.781 156.937 154.552 156.468C157.589 154.523 160.393 152.237 162.907 149.654C165.275 147.272 167.304 144.578 168.937 141.645C170.007 142.114 171.186 142.277 172.343 142.116C173.5 141.955 174.589 141.477 175.49 140.735C176.32 140.049 183.636 133.754 184.812 124.847C185.18 122.094 183.988 119.563 181.484 118.428Z" fill="#4A4D4F"/>
<path d="M139.587 159.366C135.957 159.399 132.333 159.085 128.764 158.431C128.07 158.3 127.398 158.07 126.77 157.748C120.515 154.562 115.609 149.624 112.181 143.068C110.604 143.575 108.903 143.548 107.343 142.99C103.489 141.606 100.331 138.134 97.6897 132.367C96.7182 130.234 95.8976 128.035 95.2339 125.788C94.7735 124.177 94.8699 122.459 95.5073 120.91C96.1447 119.362 97.2861 118.072 98.7474 117.251C107.479 112.316 105.51 97.554 105.489 97.4053C105.332 96.3381 105.407 95.2496 105.71 94.2141C106.012 93.1787 106.535 92.2206 107.242 91.4053C106.126 89.8175 105.669 87.8593 105.969 85.9424C106.017 85.6389 106.093 85.1837 106.197 84.6465C105.584 84.1267 105.06 83.5119 104.644 82.8256C103.042 80.1579 102.191 75.6784 105.075 71.8362C105.826 70.8377 107.112 69.2292 107.811 68.3612C108.482 67.5169 109.328 66.8267 110.29 66.3376C111.252 65.8485 112.309 65.5719 113.388 65.5266C115.856 63.0835 117.947 61.4204 119.606 60.5828C120.664 60.0526 121.83 59.7725 123.014 59.7641C124.197 59.7557 125.367 60.0192 126.433 60.5342C127.238 60.9267 127.969 61.4579 128.59 62.1033C130.504 61.9298 132.433 62.1224 134.274 62.6708C139.052 60.686 143.34 62.0638 145.389 63.0228C147.518 62.2098 149.806 61.8982 152.075 62.1124C153.213 60.9329 154.7 60.1491 156.317 59.8759C157.934 59.6028 159.596 59.8548 161.059 60.5949C162.719 61.4325 164.81 63.0926 167.278 65.5388C168.358 65.5845 169.415 65.8616 170.379 66.3512C171.342 66.8408 172.189 67.5315 172.861 68.3764C173.417 69.0714 174.803 70.8043 175.597 71.8483C178.481 75.6905 177.633 80.17 176.028 82.8408C175.612 83.5273 175.088 84.1422 174.475 84.6617C174.581 85.2049 174.654 85.6511 174.703 85.9576C175.001 87.8571 174.554 89.7982 173.457 91.3779C174.254 92.1398 174.872 93.0681 175.268 94.0964C175.663 95.1248 175.827 96.2277 175.745 97.3264C174.639 112.058 181.064 116.774 182.049 117.408C184.918 118.762 186.423 121.657 185.985 124.996C184.748 134.358 177.116 140.914 176.259 141.63C175.333 142.401 174.234 142.936 173.056 143.189C171.877 143.442 170.655 143.406 169.494 143.084C167.892 145.77 165.969 148.253 163.768 150.477C161.182 153.122 158.302 155.464 155.185 157.457C154.276 158.013 153.258 158.369 152.2 158.501C148.017 159.046 143.805 159.335 139.587 159.366ZM113.266 139.988L113.792 141.059C117.011 147.639 121.737 152.553 127.837 155.66C128.268 155.881 128.728 156.04 129.204 156.131C132.629 156.754 136.106 157.052 139.587 157.02C143.704 156.991 147.816 156.711 151.899 156.182C152.624 156.093 153.322 155.848 153.944 155.466C156.898 153.573 159.625 151.348 162.072 148.835C164.369 146.531 166.339 143.923 167.925 141.084L168.439 140.14L169.427 140.571C170.298 140.954 171.258 141.086 172.201 140.954C173.143 140.821 174.029 140.429 174.761 139.821C175.554 139.163 182.547 133.144 183.666 124.683C183.97 122.373 182.952 120.383 181.007 119.49L180.879 119.423C179.973 118.871 172.18 113.554 173.396 97.1382C173.461 96.2356 173.287 95.3318 172.891 94.5181C172.494 93.7044 171.889 93.0096 171.138 92.5039L169.965 91.7148L170.956 90.7103C171.519 90.1381 171.94 89.4428 172.187 88.6794C172.434 87.916 172.5 87.1057 172.378 86.3127C172.311 85.8999 172.199 85.2383 172.025 84.4037L171.867 83.6389L172.512 83.1989C173.119 82.7821 173.629 82.2397 174.007 81.6086C175.223 79.5631 175.897 76.1458 173.703 73.2322C172.937 72.2095 171.576 70.5008 171.019 69.821C170.517 69.1901 169.876 68.684 169.145 68.3423C168.414 68.0005 167.614 67.8325 166.807 67.8514H166.302L165.947 67.4932C163.54 65.0653 161.482 63.4022 159.99 62.6374C158.906 62.0885 157.666 61.9274 156.477 62.1809C155.289 62.4344 154.223 63.0872 153.458 64.0304L153.051 64.5281L152.413 64.4523C150.173 64.1511 147.893 64.4594 145.814 65.3445L145.301 65.5722L144.799 65.3142C143.279 64.5312 139.252 62.9257 134.806 64.953L134.38 65.1442L133.937 64.9925C132.098 64.3898 130.148 64.2052 128.229 64.4523L127.591 64.5281L127.198 64.0547C126.433 63.1113 125.367 62.4583 124.178 62.2048C122.989 61.9513 121.748 62.1126 120.664 62.6617C119.175 63.4143 117.117 65.0896 114.71 67.5175L114.354 67.8756H113.85C113.043 67.8532 112.243 68.0191 111.512 68.36C110.781 68.7009 110.14 69.2074 109.64 69.8392C109.084 70.5312 107.71 72.2459 106.954 73.2565C104.768 76.164 105.434 79.5873 106.65 81.6329C107.027 82.2647 107.537 82.8073 108.145 83.2232L108.789 83.6632L108.628 84.428C108.458 85.2474 108.342 85.9181 108.279 86.337C108.151 87.1212 108.21 87.9244 108.45 88.6819C108.691 89.4393 109.105 90.1299 109.662 90.6981L110.534 91.6086L109.57 92.3825C109.431 92.5009 109.312 92.6101 109.209 92.7133C108.65 93.2772 108.231 93.9641 107.986 94.7189C107.741 95.4736 107.677 96.2752 107.798 97.0593C107.826 97.2323 110.054 113.545 99.8962 119.287C98.8934 119.851 98.11 120.735 97.6722 121.798C97.2344 122.86 97.1677 124.039 97.483 125.144C98.115 127.281 98.896 129.371 99.8202 131.399C102.185 136.559 104.905 139.633 108.136 140.807C108.796 141.042 109.498 141.141 110.197 141.096C110.897 141.052 111.58 140.866 112.205 140.549L113.266 139.988Z" fill="white"/>
<path d="M130.338 150.158C136.417 151.32 143.599 151.129 151.434 150.158C151.434 150.158 165.612 141.484 165.968 129.448L171.639 134.935C171.639 134.935 177.846 129.803 178.73 123.078C178.73 123.078 166.855 117.059 168.451 95.8181L162.069 94.0487C162.069 94.0487 165.968 103.43 164.728 110.51C163.488 117.59 163.044 113.518 163.044 113.518C163.044 113.518 161.582 110.598 160.208 113.739C158.835 116.88 159.719 126.04 159.719 126.04C159.719 126.04 153.294 115.417 145.893 119.138C145.893 119.138 141.596 122.015 147.313 122.546C147.313 122.546 153.206 125.73 153.96 133.961L149.306 140.112C149.306 140.112 151.166 133.166 146.203 131.918C146.203 131.918 143.468 129.263 138.936 130.501C138.936 130.501 141.152 131.108 143.191 133.421C143.191 133.421 131.049 132.98 133.885 142.273C133.885 142.273 125.463 137.581 127.946 131.12C130.429 124.659 128.21 130.768 128.21 130.768C128.21 130.768 130.162 123.332 135.481 122.094C135.481 122.094 139.38 121.296 135.569 118.82C135.569 118.82 127.77 115.809 122.196 125.988V115.642C122.196 115.642 119.36 108.829 118.564 114.756C118.564 114.756 114.917 109.36 117.764 100.598L118.64 94.6769C118.64 94.6769 117.12 95.9152 113.056 95.3841C113.056 95.3841 116.068 115.208 102.598 122.82C102.598 122.82 105.61 133.442 110.041 135.032L115.716 129.014C115.716 129.014 117.488 143.609 130.338 150.158Z" fill="white"/>
<path d="M133.375 129.405C133.375 129.405 139.711 124.889 147.963 129.405V126.88C147.963 126.88 140.873 120.644 133.375 126.88V129.405Z" fill="#EAD053"/>
<path d="M138.514 118.85H142.568C142.568 118.85 144.364 115.332 147.954 115.533L146.954 112.744C146.954 112.744 146.288 111.748 145.027 112.744C143.766 113.739 143.696 114.261 143.696 114.261C143.696 114.261 143.364 110.81 144.361 108.753C144.361 108.753 144.893 106.097 142.899 104.835C141.488 105.385 139.922 105.385 138.511 104.835C138.511 104.835 136.45 105.442 137.049 109.217C137.648 112.993 137.915 113.997 137.915 113.997L136.186 112.668C136.186 112.668 134.854 111.074 134.192 112.999C133.529 114.923 133.727 115.524 133.727 115.524L135.587 115.921C135.587 115.921 138.049 117.19 138.514 118.85Z" fill="#EAD053"/>
<path d="M154.586 114.319C154.586 114.319 155.586 109.332 157.185 108.267L154.586 107.727C154.586 107.727 158.65 104.534 160.647 103.936C160.647 103.936 161.71 103.606 160.647 102.807L160.115 100.146C160.115 100.146 158.315 97.5539 156.519 99.3476C156.519 99.3476 155.653 100.81 155.653 101.742C155.653 101.742 149.27 103.071 148.261 104.801C147.252 106.531 148.529 113.387 154.586 114.319Z" fill="#EAD053"/>
<path d="M127.369 114.319C127.369 114.319 126.369 109.332 124.77 108.267L127.369 107.736C127.369 107.736 123.305 104.543 121.308 103.946C121.308 103.946 120.244 103.615 121.308 102.817L121.84 100.155C121.84 100.155 123.639 97.5631 125.436 99.3567C125.436 99.3567 126.302 100.82 126.302 101.751C126.302 101.751 132.684 103.081 133.693 104.81C134.703 106.54 133.426 113.387 127.369 114.319Z" fill="#EAD053"/>
<path d="M157.789 92.9015C157.789 92.9015 153.394 92.9015 150.996 96.3582C150.996 96.3582 148.334 98.5494 146.069 98.5859C143.805 98.6223 143.003 95.7422 143.003 95.7422C143.003 95.7422 143.27 98.4189 140.875 98.5859C140.875 98.5859 138.48 98.7194 138.611 95.7452C138.611 95.7452 137.015 99.4842 134.617 98.5859C134.617 98.5859 133.152 98.7255 129.69 95.815C126.229 92.9045 123.563 92.9015 123.563 92.9015C123.563 92.9015 118.238 87.7604 129.946 92.0608C129.946 92.0608 127.682 88.1154 123.022 87.1837C123.022 87.1837 128.748 85.7209 132.478 83.727C132.478 83.727 133.541 84.3916 131.946 86.6526C131.946 86.6526 135.939 88.1154 145.662 81.9971C145.662 81.9971 151.388 86.1215 157.78 86.7861C157.78 86.7861 152.309 89.8878 151.397 92.0608C151.397 92.0608 154.993 89.9364 157.78 90.3613C157.789 90.3613 160.451 90.2429 157.789 92.9015Z" fill="#EAD053"/>
<path d="M169.776 78.0335C169.776 78.0335 170.666 76.5525 169.776 75.3689C169.046 74.3947 167.648 72.6709 167.195 72.0882C167.18 72.0702 167.16 72.0568 167.138 72.0493C167.116 72.0418 167.092 72.0404 167.069 72.0454C167.045 72.0504 167.024 72.0615 167.007 72.0776C166.99 72.0936 166.977 72.1141 166.971 72.1367L166.363 74.4068C166.363 74.4068 160.624 67.6997 157.853 66.3006C157.825 66.2869 157.795 66.2797 157.765 66.2797C157.734 66.2796 157.704 66.2866 157.676 66.3001C157.649 66.3136 157.625 66.3333 157.607 66.3576C157.588 66.382 157.576 66.4102 157.57 66.4402L157.175 68.4129L159.248 71.3719C159.248 71.3719 152.282 66.859 147.698 69.3021C147.698 69.3021 151.257 77.1443 160.594 75.6754L162.67 78.6344C162.67 78.6344 156.74 74.2945 150.294 79.3021C150.294 79.3021 155.184 83.5935 161.485 81.9668C161.485 81.9668 159.114 84.853 159.707 86.1853C159.707 86.1853 160.819 88.2551 167.487 86.1853C167.487 86.1853 166.451 79.6299 164.302 76.6526C164.293 76.6435 164.515 75.2202 169.776 78.0335Z" fill="#EAD053"/>
<path d="M133.311 77.3142C133.311 77.3142 137.593 78.4796 138.091 82.5312C138.091 82.5312 144.474 80.9227 145.428 76.3703C145.428 76.3703 146.34 77.7573 147.69 78.3127C147.69 78.3127 147.82 72.5463 139.927 70.5979C139.927 70.5979 140.651 69.3202 143.316 69.384C143.316 69.384 139.973 66.8832 136.368 69.1048C136.368 69.1048 137.982 69.384 137.924 70.7133C137.866 72.0426 135.979 74.2125 135.979 74.2125C135.979 74.2125 139.426 76.5949 138.76 77.8726C137.963 77.3507 137.052 77.0276 136.103 76.9304C135.155 76.8332 134.197 76.9648 133.311 77.3142Z" fill="#EAD053"/>
<path d="M111.224 78.0335C111.224 78.0335 110.336 76.5524 111.224 75.3688C111.956 74.3946 113.351 72.6708 113.807 72.0881C113.822 72.0702 113.842 72.0567 113.865 72.0492C113.887 72.0417 113.911 72.0403 113.934 72.0453C113.957 72.0503 113.978 72.0614 113.996 72.0775C114.013 72.0936 114.025 72.114 114.032 72.1366L114.64 74.4067C114.64 74.4067 120.378 67.6996 123.15 66.3005C123.177 66.2869 123.208 66.2797 123.238 66.2797C123.269 66.2796 123.3 66.2866 123.327 66.3C123.355 66.3135 123.379 66.3332 123.398 66.3575C123.416 66.3818 123.429 66.41 123.436 66.4401L123.831 68.4128L121.755 71.3718C121.755 71.3718 128.721 66.8589 133.304 69.302C133.304 69.302 129.748 77.1442 120.408 75.6753L118.333 78.6344C118.333 78.6344 124.262 74.2944 130.712 79.302C130.712 79.302 125.818 83.5934 119.521 81.9667C119.521 81.9667 121.892 84.8529 121.299 86.1852C121.299 86.1852 120.186 88.255 113.515 86.1852C113.515 86.1852 114.555 79.6298 116.703 76.6526C116.71 76.6435 116.488 75.2201 111.224 78.0335Z" fill="#EAD053"/>
</svg>
