<svg width="304" height="304" viewBox="0 0 304 304" fill="none" xmlns="http://www.w3.org/2000/svg">
<path d="M203.549 153.742L193.061 139.715L292.764 102.889L235.424 146.458L251.885 158.943L140.849 200.485L203.549 153.742Z" fill="#E8E6E8"/>
<path d="M265.146 115.712L203.416 138.63L217.901 149.334L173.596 180.968L242.744 154.967L228.14 143.926L265.146 115.712Z" fill="#EAD053"/>
<path d="M196.572 106.056L177.211 100.159L258.759 31.9929L219.375 92.2852L239.078 98.5203L148.437 174.931L196.572 106.056Z" fill="#E8E6E8"/>
<path d="M237.05 53.3459L186.598 95.6597L203.838 100.879L172.727 145.552L229.131 97.8424L211.666 92.3461L237.05 53.3459Z" fill="#EAD053"/>
<path d="M95.1492 150.355L111.407 138.299L11.7012 101.472L69.0447 145.041L52.5801 157.527L163.616 199.068L95.1492 150.355Z" fill="#E8E6E8"/>
<path d="M39.3223 114.295L101.049 137.21L86.5639 147.917L130.872 179.549L61.721 153.547L76.3282 142.509L39.3223 114.295Z" fill="#EAD053"/>
<path d="M111.337 102.044L130.699 96.146L49.1509 27.9801L88.5341 88.2724L68.8318 94.5044L159.472 170.918L111.337 102.044Z" fill="#E8E6E8"/>
<path d="M70.8594 49.3301L121.311 91.6438L104.071 96.8635L135.183 141.536L78.7786 93.8266L96.2434 88.3333L70.8594 49.3301Z" fill="#EAD053"/>
<path d="M148.993 181.248C149.951 184.042 153.025 187.191 155.736 188.109C158.369 188.988 162.12 188.988 164.193 188.03C166.148 187.118 168.449 184.519 169.057 182.446C170.775 176.782 167.465 172.034 161.837 172.034C159.287 172.034 157.451 173.113 156.335 175.226C155.894 175.983 155.575 176.381 155.575 176.065C155.575 175.025 157.211 172.873 158.688 171.955C160.482 170.839 164.273 170.717 166.148 171.714C170.374 173.988 172.17 178.855 170.495 183.683C168.699 188.988 162.239 192.219 156.533 190.675L154.499 190.155L155.256 191.471C155.894 192.508 156.016 193.189 155.815 194.703C155.377 197.816 155.457 198.853 156.375 201.245C157.529 204.396 159.527 207.169 162.151 209.261C165.701 212.095 168.054 212.891 173.122 212.934C177.15 212.934 177.43 212.891 179.81 211.575C184.656 208.93 187.264 204.744 187.264 199.558C187.264 197.126 187.063 196.214 186.185 194.533C184.312 190.86 180.363 188.389 176.375 188.389C174.46 188.389 171.149 189.985 169.872 191.499C166.72 195.29 167.598 201.312 171.666 203.428C173.49 204.385 176.253 204.303 178.168 203.188L179.725 202.276L178.606 203.312C175.262 206.425 169.434 204.869 167.2 200.242C164.288 194.259 169.593 186.44 176.572 186.401C178.719 186.411 180.831 186.947 182.722 187.963C184.614 188.978 186.227 190.442 187.422 192.225C190.496 196.852 190.334 202.993 187.024 207.9C185.866 209.614 185.866 209.724 186.465 211.013C187.264 212.727 189.897 214.56 192.21 215.08C196.916 216.077 200.664 213.286 200.664 208.818C200.664 206.465 198.792 204.391 196.408 204.072C194.855 203.872 194.584 203.99 193.298 205.267C191.505 207.064 191.423 208.699 193.058 210.374C194.414 211.69 193.736 211.928 192.183 210.733C189.909 208.936 190.055 205.346 192.487 203.194C193.268 202.474 194.229 201.98 195.268 201.762C196.307 201.544 197.386 201.611 198.39 201.956C200.105 202.437 200.822 203.115 204.89 207.781C206.565 209.696 208.042 210.891 209.678 211.733C211.791 212.809 212.39 212.931 215.819 212.931C219.163 212.931 219.85 212.809 221.643 211.852C227.787 208.62 229.301 200.485 224.595 196.217C222.002 193.903 219.09 193.423 216.22 194.861C213.35 196.299 212.031 198.968 212.669 201.92C213.147 204.048 214.305 205.264 216.457 206.03C218.333 206.665 218.372 206.708 217.096 206.747C211.113 206.826 208.602 198.767 213.186 194.183C216.898 190.511 223.677 190.79 227.188 194.818L228.386 196.177L228.426 191.189C228.426 186.802 228.544 185.884 229.502 183.373C230.818 179.862 230.818 179.263 229.62 175.633C228.265 171.645 226.431 168.772 223.2 165.461C216.938 159.041 208.52 156.408 199.792 158.123C192.572 159.518 185.869 166.261 184.288 173.627C182.373 182.522 188.24 191.018 197.491 192.779C205.157 194.256 212.618 188.27 212.618 180.576C212.618 177.864 211.818 175.87 209.906 173.915C205.997 169.848 200.373 169.355 196.53 172.757C195.214 173.915 195.01 174.034 195.493 173.238C195.852 172.678 197.089 171.642 198.284 170.924C200.318 169.647 200.597 169.608 203.431 169.766C207.021 169.966 208.976 170.845 211.335 173.356C213.694 175.867 214.326 177.664 214.375 181.214C214.414 183.847 214.256 184.558 213.098 186.878C212.028 189.044 210.463 190.928 208.529 192.377C206.596 193.826 204.348 194.798 201.969 195.217C195.986 196.332 188.805 193.222 184.856 187.921C182.145 184.209 181.388 181.777 181.348 176.63C181.309 171.483 180.907 170.687 177.439 167.416C173.849 164.072 170.419 162.43 165.71 161.91C162.759 161.552 158.171 162.43 155.818 163.826C153.544 165.142 150.513 168.492 149.516 170.766C148.316 173.432 148.078 178.418 148.993 181.248Z" fill="#E8E6E8"/>
<path d="M235.113 205.261C236.828 206.459 240.698 206.656 242.373 205.62C245.604 203.586 245.565 198.001 242.294 196.764C238.664 195.369 235.393 198.442 236.989 201.671C237.387 202.51 237.387 202.51 236.788 201.792C234.915 199.479 237.308 195.569 240.539 195.569C242.333 195.569 244.686 196.725 245.099 197.804C245.221 198.123 245.501 198.321 245.707 198.202C245.914 198.083 245.47 197.044 244.75 195.968C243.953 194.713 243.361 193.34 242.996 191.9C241.88 186.714 245.151 181.33 250.255 179.971C253.727 179.014 257.676 180.81 259.311 184.002C260.147 185.677 260.348 188.228 259.71 189.185C259.39 189.626 259.351 189.489 259.549 188.669C260.187 185.914 258.472 182.893 255.521 181.567C254.594 181.095 253.569 180.849 252.529 180.849C251.489 180.849 250.464 181.095 249.538 181.567C241.679 185.197 243.516 196.405 252.411 198.998C257.715 200.555 263.418 197.682 266.17 192.058C267.328 189.705 267.486 189.018 267.486 185.996C267.486 183.163 267.328 182.245 266.41 180.33C265.255 177.819 262.303 174.429 260.108 173.034C255.919 170.401 250.255 169.565 245.747 170.921C238.889 172.994 233.064 179.217 231.188 186.598C229.519 193.095 231.562 202.707 235.113 205.261Z" fill="#E8E6E8"/>
<path d="M152.264 181.248C151.307 184.042 148.236 187.191 145.522 188.109C142.889 188.988 139.138 188.988 137.068 188.03C135.113 187.118 132.812 184.519 132.204 182.446C130.489 176.782 133.799 172.034 139.424 172.034C141.974 172.034 143.81 173.113 144.926 175.226C145.367 175.983 145.686 176.381 145.686 176.065C145.686 175.025 144.05 172.873 142.573 171.955C140.779 170.839 136.988 170.717 135.116 171.714C130.887 173.988 129.091 178.855 130.766 183.683C132.562 188.988 139.025 192.219 144.728 190.675L146.762 190.155L146.005 191.471C145.367 192.508 145.245 193.189 145.446 194.703C145.883 197.816 145.804 198.852 144.886 201.245C143.733 204.397 141.735 207.17 139.11 209.261C135.56 212.095 133.207 212.891 128.139 212.934C124.111 212.934 123.831 212.891 121.451 211.575C116.624 208.942 114.033 204.756 114.033 199.57C114.033 197.138 114.231 196.226 115.11 194.545C116.982 190.872 120.931 188.401 124.923 188.401C126.835 188.401 130.145 189.997 131.422 191.511C134.575 195.302 133.696 201.324 129.629 203.44C127.805 204.397 125.041 204.315 123.126 203.2L121.57 202.288L122.688 203.324C126.032 206.437 131.863 204.881 134.094 200.254C137.007 194.271 131.702 186.452 124.722 186.413C122.575 186.423 120.464 186.959 118.572 187.975C116.681 188.99 115.067 190.454 113.872 192.237C110.802 196.864 110.96 203.005 114.271 207.912C115.429 209.626 115.429 209.736 114.83 211.025C114.033 212.739 111.401 214.572 109.084 215.092C104.378 216.089 100.63 213.299 100.63 208.83C100.63 206.477 102.503 204.404 104.886 204.084C106.439 203.884 106.71 204.002 107.996 205.279C109.793 207.076 109.872 208.711 108.236 210.386C106.88 211.703 107.558 211.94 109.115 210.745C111.389 208.948 111.243 205.358 108.811 203.206C108.03 202.486 107.069 201.992 106.029 201.774C104.99 201.556 103.911 201.623 102.907 201.968C101.189 202.449 100.475 203.127 96.4045 207.793C94.7294 209.708 93.252 210.903 91.6165 211.745C89.4885 212.821 88.9048 212.943 85.4757 212.943C82.1317 212.943 81.4446 212.821 79.651 211.864C73.5072 208.632 71.9933 200.497 76.6992 196.229C79.2923 193.916 82.2046 193.435 85.0774 194.873C87.9502 196.311 89.2635 198.98 88.6251 201.932C88.1478 204.06 86.9896 205.276 84.8373 206.042C82.9616 206.677 82.9221 206.72 84.1989 206.76C90.1816 206.839 92.6957 198.78 88.1083 194.195C84.3965 190.523 77.6173 190.803 74.1061 194.831L72.9113 196.189L72.8688 191.201C72.8688 186.814 72.7502 185.896 71.7926 183.385C70.4763 179.874 70.4763 179.275 71.6741 175.645C73.0299 171.657 74.863 168.784 78.0945 165.473C84.3569 159.053 92.7747 156.42 101.503 158.135C108.723 159.53 115.426 166.273 117.022 173.639C118.934 182.534 113.07 191.031 103.816 192.791C96.1005 194.256 88.6403 188.27 88.6403 180.576C88.6403 177.864 89.4398 175.87 91.355 173.915C95.2645 169.848 100.888 169.355 104.716 172.757C106.032 173.915 106.236 174.034 105.752 173.237C105.394 172.678 104.16 171.641 102.962 170.924C100.928 169.647 100.648 169.608 97.815 169.766C94.2248 169.966 92.2701 170.845 89.911 173.356C87.552 175.867 86.9197 177.664 86.871 181.214C86.8315 183.847 86.9896 184.558 88.1478 186.878C89.2181 189.044 90.7833 190.928 92.7168 192.376C94.6504 193.825 96.8978 194.798 99.2773 195.217C105.26 196.332 112.44 193.222 116.389 187.921C119.101 184.209 119.858 181.777 119.898 176.63C119.937 171.483 120.338 170.687 123.807 167.416C127.397 164.072 130.829 162.43 135.535 161.91C138.487 161.552 143.075 162.43 145.427 163.826C147.701 165.142 150.732 168.492 151.729 170.766C152.942 173.432 153.183 178.418 152.264 181.248Z" fill="#E8E6E8"/>
<path d="M66.1443 205.261C64.4298 206.459 60.5599 206.656 58.8848 205.62C55.6533 203.586 55.6928 198.001 58.9639 196.764C62.5936 195.369 65.8647 198.442 64.2687 201.671C63.8704 202.51 63.8704 202.51 64.4693 201.792C66.345 199.479 63.9495 195.569 60.721 195.569C58.9243 195.569 56.5714 196.725 56.161 197.804C56.0394 198.123 55.7627 198.321 55.553 198.202C55.3432 198.083 55.7931 197.044 56.5106 195.968C57.3072 194.713 57.8993 193.34 58.2647 191.9C59.3834 186.714 56.1123 181.33 51.0051 179.971C47.5365 179.014 43.5875 180.81 41.952 184.002C41.113 185.677 40.9123 188.228 41.5507 189.185C41.8699 189.626 41.9095 189.489 41.7119 188.669C41.0735 185.914 42.788 182.893 45.7399 181.567C46.6663 181.095 47.6914 180.849 48.7312 180.849C49.7711 180.849 50.7961 181.095 51.7226 181.567C59.581 185.197 57.7479 196.405 48.8528 198.998C43.545 200.555 37.8419 197.682 35.0907 192.058C33.9325 189.705 33.7744 189.018 33.7744 185.996C33.7744 183.163 33.9325 182.245 34.8506 180.33C36.0088 177.819 38.9607 174.429 41.1525 173.034C45.3416 170.401 51.0051 169.565 55.5135 170.921C62.3747 172.994 68.1963 179.217 70.072 186.598C71.744 193.095 69.6951 202.707 66.1443 205.261Z" fill="#E8E6E8"/>
<path d="M152.234 203.075C188.652 203.075 218.175 173.552 218.175 137.134C218.175 100.716 188.652 71.1937 152.234 71.1937C115.816 71.1937 86.2935 100.716 86.2935 137.134C86.2935 173.552 115.816 203.075 152.234 203.075Z" fill="#4A4D4F"/>
<path d="M152.234 205.504C136.419 205.504 121.094 200.02 108.869 189.988C96.6435 179.955 88.2754 165.993 85.19 150.482C82.1047 134.971 84.4931 118.871 91.9481 104.923C99.4032 90.9756 111.464 80.0446 126.075 73.9925C140.686 67.9404 156.943 67.1417 172.077 71.7325C187.211 76.3233 200.285 86.0196 209.071 99.1691C217.857 112.319 221.812 128.108 220.262 143.847C218.712 159.585 211.753 174.3 200.57 185.482C194.237 191.85 186.704 196.898 178.407 200.335C170.111 203.771 161.214 205.528 152.234 205.504ZM152.234 73.6227C117.207 73.6227 88.698 102.12 88.698 137.159C88.698 172.198 117.195 200.695 152.234 200.695C187.273 200.695 215.77 172.198 215.77 137.159C215.77 102.12 187.264 73.6105 152.234 73.6105V73.6227Z" fill="white"/>
<path d="M193.226 146.607C192.374 146.078 185.133 141.111 186.313 125.37C186.395 124.259 186.182 123.145 185.694 122.144C185.207 121.142 184.462 120.287 183.537 119.667C184.232 118.964 184.752 118.108 185.055 117.168C185.358 116.227 185.436 115.228 185.282 114.252C185.212 113.815 185.097 113.131 184.92 112.285C185.667 111.774 186.294 111.107 186.759 110.331C188.176 107.969 188.93 104.011 186.395 100.63C185.616 99.5904 184.239 97.8698 183.686 97.1827C183.07 96.4078 182.283 95.7866 181.386 95.3683C180.489 94.9499 179.507 94.7458 178.518 94.772C176.475 92.717 174.156 90.6589 172.256 89.6983C170.932 89.0291 169.419 88.833 167.968 89.1427C166.518 89.4524 165.217 90.2492 164.282 91.4007C161.833 91.0751 159.342 91.4153 157.071 92.3856C154.432 91.0267 150.307 90.057 146.051 91.9965C144.047 91.3298 141.92 91.122 139.825 91.3885C138.89 90.2364 137.588 89.4394 136.136 89.1302C134.685 88.821 133.172 89.0183 131.848 89.6891C129.951 90.6467 127.631 92.7048 125.589 94.7599C124.6 94.7343 123.619 94.9381 122.722 95.3553C121.826 95.7725 121.038 96.3918 120.421 97.1645C119.864 97.8576 118.484 99.5965 117.709 100.618C115.174 103.998 115.927 107.957 117.344 110.319C117.81 111.095 118.437 111.761 119.183 112.273C119.01 113.118 118.879 113.793 118.822 114.24C118.669 115.206 118.743 116.194 119.039 117.126C119.334 118.057 119.843 118.908 120.524 119.609C120.369 119.737 120.22 119.873 120.077 120.016C119.393 120.713 118.881 121.559 118.581 122.487C118.281 123.416 118.201 124.402 118.347 125.367C118.369 125.525 120.494 141.071 111.021 146.434C109.79 147.13 108.829 148.219 108.292 149.526C107.754 150.834 107.671 152.284 108.057 153.645C108.704 155.838 109.503 157.983 110.449 160.065C112.951 165.537 115.891 168.817 119.436 170.097C120.246 170.39 121.107 170.514 121.967 170.462C122.827 170.41 123.668 170.182 124.436 169.793C127.017 175.077 131.456 181.096 139.007 184.948C139.536 185.218 140.101 185.413 140.685 185.525C144.184 186.162 147.735 186.468 151.292 186.437C155.46 186.409 159.622 186.125 163.756 185.586C164.653 185.479 165.517 185.181 166.288 184.71C169.326 182.763 172.13 180.473 174.645 177.886C177.013 175.5 179.042 172.8 180.676 169.863C181.746 170.333 182.925 170.496 184.083 170.335C185.24 170.174 186.33 169.695 187.231 168.951C188.061 168.264 195.378 161.959 196.554 153.037C196.922 150.279 195.73 147.744 193.226 146.607Z" fill="#4A4D4F"/>
<path d="M151.319 187.614C147.689 187.646 144.064 187.333 140.493 186.677C139.799 186.546 139.128 186.316 138.499 185.993C132.243 182.801 127.336 177.855 123.907 171.289C122.329 171.796 120.628 171.769 119.067 171.21C115.213 169.823 112.054 166.346 109.412 160.57C108.441 158.433 107.62 156.231 106.956 153.979C106.496 152.366 106.592 150.645 107.23 149.094C107.867 147.542 109.009 146.251 110.47 145.427C119.204 140.484 117.234 125.698 117.213 125.549C117.056 124.48 117.131 123.39 117.434 122.352C117.737 121.315 118.26 120.356 118.967 119.539C117.85 117.948 117.394 115.987 117.693 114.067C117.742 113.763 117.818 113.307 117.921 112.769C117.309 112.248 116.785 111.632 116.368 110.945C114.766 108.273 113.915 103.786 116.8 99.9369C117.551 98.9367 118.836 97.3256 119.536 96.4561C120.207 95.6103 121.053 94.919 122.016 94.4291C122.978 93.9391 124.035 93.6621 125.114 93.6168C127.583 91.1696 129.674 89.5036 131.334 88.6646C132.392 88.1336 133.558 87.853 134.742 87.8446C135.926 87.8361 137.096 88.1001 138.162 88.6159C138.968 89.0091 139.698 89.5411 140.32 90.1876C142.234 90.0139 144.163 90.2068 146.005 90.7561C150.784 88.768 155.073 90.1481 157.122 91.1088C159.252 90.2944 161.54 89.9823 163.81 90.1968C164.948 89.0153 166.435 88.2301 168.053 87.9566C169.67 87.683 171.333 87.9354 172.796 88.6768C174.456 89.5158 176.548 91.1787 179.016 93.6289C180.096 93.6747 181.154 93.9523 182.118 94.4427C183.081 94.9331 183.928 95.625 184.601 96.4713C185.157 97.1675 186.543 98.9033 187.337 99.9491C190.222 103.798 189.374 108.285 187.768 110.96C187.352 111.648 186.828 112.264 186.215 112.784C186.321 113.328 186.394 113.775 186.443 114.082C186.741 115.985 186.294 117.929 185.197 119.511C185.994 120.275 186.612 121.204 187.008 122.235C187.404 123.265 187.567 124.369 187.486 125.47C186.379 140.226 192.806 144.95 193.791 145.586C196.66 146.941 198.165 149.842 197.727 153.186C196.49 162.564 188.857 169.13 187.999 169.848C187.074 170.62 185.974 171.156 184.795 171.41C183.617 171.663 182.394 171.627 181.232 171.304C179.63 173.995 177.707 176.482 175.505 178.709C172.919 181.359 170.038 183.705 166.92 185.701C166.011 186.259 164.993 186.615 163.935 186.747C159.751 187.293 155.538 187.582 151.319 187.614ZM124.992 168.203L125.518 169.276C128.738 175.867 133.465 180.789 139.566 183.902C139.998 184.123 140.458 184.282 140.934 184.373C144.36 184.998 147.837 185.296 151.319 185.264C155.437 185.235 159.55 184.954 163.634 184.425C164.359 184.335 165.057 184.09 165.68 183.707C168.634 181.811 171.362 179.582 173.809 177.065C176.107 174.757 178.077 172.144 179.664 169.301L180.178 168.355L181.166 168.787C182.037 169.17 182.998 169.303 183.94 169.171C184.883 169.038 185.769 168.645 186.501 168.036C187.294 167.376 194.289 161.348 195.408 152.872C195.712 150.559 194.694 148.565 192.748 147.671L192.62 147.604C191.714 147.051 183.92 141.725 185.136 125.281C185.201 124.377 185.027 123.472 184.63 122.657C184.234 121.842 183.629 121.146 182.877 120.639L181.704 119.849L182.695 118.843C183.258 118.27 183.68 117.573 183.927 116.808C184.174 116.044 184.239 115.232 184.117 114.438C184.051 114.024 183.938 113.362 183.765 112.526L183.607 111.759L184.251 111.319C184.858 110.901 185.368 110.358 185.747 109.726C186.963 107.677 187.638 104.254 185.443 101.335C184.677 100.311 183.315 98.5993 182.759 97.9184C182.256 97.2864 181.615 96.7794 180.883 96.4371C180.152 96.0948 179.352 95.9265 178.545 95.9454H178.04L177.685 95.5867C175.277 93.1547 173.219 91.4887 171.726 90.7227C170.642 90.1729 169.402 90.0115 168.213 90.2654C167.024 90.5193 165.958 91.1732 165.193 92.118L164.786 92.6166L164.148 92.5406C161.907 92.2389 159.627 92.5477 157.548 93.4344L157.034 93.6624L156.532 93.4039C155.012 92.6196 150.984 91.0115 146.537 93.0422L146.111 93.2337L145.667 93.0817C143.829 92.478 141.878 92.2931 139.958 92.5406L139.32 92.6166L138.928 92.1424C138.162 91.1973 137.096 90.5433 135.906 90.2894C134.717 90.0355 133.477 90.197 132.392 90.747C130.902 91.5009 128.844 93.179 126.436 95.611L126.081 95.9697H125.576C124.77 95.9473 123.969 96.1134 123.238 96.4548C122.507 96.7963 121.866 97.3037 121.366 97.9366C120.809 98.6297 119.435 100.347 118.678 101.36C116.493 104.272 117.158 107.701 118.374 109.75C118.752 110.383 119.262 110.926 119.87 111.343L120.515 111.784L120.353 112.55C120.183 113.371 120.068 114.043 120.004 114.462C119.876 115.248 119.935 116.052 120.176 116.811C120.416 117.57 120.831 118.261 121.387 118.831L122.259 119.743L121.296 120.518C121.156 120.636 121.037 120.746 120.934 120.849C120.375 121.414 119.956 122.102 119.711 122.858C119.466 123.614 119.402 124.417 119.523 125.202C119.551 125.376 121.779 141.716 111.619 147.467C110.616 148.032 109.833 148.918 109.395 149.982C108.957 151.047 108.89 152.228 109.206 153.335C109.838 155.475 110.619 157.569 111.543 159.6C113.909 164.768 116.629 167.847 119.861 169.024C120.521 169.259 121.223 169.358 121.923 169.313C122.623 169.269 123.306 169.083 123.931 168.766L124.992 168.203Z" fill="white"/>
<path d="M142.068 178.39C148.148 179.555 155.332 179.363 163.169 178.39C163.169 178.39 177.351 169.702 177.706 157.645L183.379 163.142C183.379 163.142 189.587 158.001 190.471 151.264C190.471 151.264 178.594 145.236 180.19 123.959L173.806 122.187C173.806 122.187 177.706 131.583 176.466 138.676C175.226 145.768 174.782 141.688 174.782 141.688C174.782 141.688 173.32 138.764 171.945 141.91C170.571 145.057 171.456 154.231 171.456 154.231C171.456 154.231 165.029 143.591 157.627 147.318C157.627 147.318 153.329 150.2 159.047 150.732C159.047 150.732 164.941 153.921 165.695 162.166L161.041 168.328C161.041 168.328 162.901 161.369 157.937 160.12C157.937 160.12 155.201 157.46 150.669 158.7C150.669 158.7 152.885 159.308 154.925 161.625C154.925 161.625 142.78 161.184 145.616 170.492C145.616 170.492 137.192 165.793 139.676 159.32C142.16 152.848 139.94 158.968 139.94 158.968C139.94 158.968 141.892 151.52 147.212 150.279C147.212 150.279 151.112 149.48 147.3 146.999C147.3 146.999 139.5 143.984 133.924 154.18V143.816C133.924 143.816 131.088 136.992 130.291 142.929C130.291 142.929 126.643 137.524 129.492 128.747L130.367 122.816C130.367 122.816 128.847 124.056 124.783 123.524C124.783 123.524 127.796 143.382 114.322 151.006C114.322 151.006 117.335 161.646 121.767 163.239L127.443 157.211C127.443 157.211 129.215 171.83 142.068 178.39Z" fill="white"/>
<path d="M145.105 157.603C145.105 157.603 151.444 153.079 159.697 157.603V155.073C159.697 155.073 152.605 148.826 145.105 155.073V157.603Z" fill="#EAD053"/>
<path d="M150.246 147.03H154.301C154.301 147.03 156.098 143.506 159.688 143.707L158.688 140.913C158.688 140.913 158.022 139.916 156.76 140.913C155.499 141.91 155.429 142.433 155.429 142.433C155.429 142.433 155.098 138.977 156.095 136.915C156.095 136.915 156.627 134.255 154.632 132.991C153.221 133.542 151.654 133.542 150.243 132.991C150.243 132.991 148.182 133.599 148.78 137.381C149.379 141.162 149.647 142.169 149.647 142.169L147.917 140.837C147.917 140.837 146.586 139.241 145.923 141.168C145.26 143.096 145.458 143.698 145.458 143.698L147.318 144.096C147.318 144.096 149.781 145.367 150.246 147.03Z" fill="#EAD053"/>
<path d="M166.322 142.491C166.322 142.491 167.322 137.496 168.921 136.429L166.322 135.888C166.322 135.888 170.387 132.69 172.384 132.091C172.384 132.091 173.448 131.76 172.384 130.96L171.852 128.294C171.852 128.294 170.052 125.698 168.256 127.495C168.256 127.495 167.389 128.96 167.389 129.893C167.389 129.893 161.005 131.225 159.996 132.957C158.987 134.69 160.263 141.558 166.322 142.491Z" fill="#EAD053"/>
<path d="M139.098 142.491C139.098 142.491 138.098 137.496 136.499 136.429L139.098 135.897C139.098 135.897 135.034 132.699 133.036 132.1C133.036 132.1 131.972 131.769 133.036 130.969L133.568 128.303C133.568 128.303 135.368 125.707 137.165 127.504C137.165 127.504 138.031 128.969 138.031 129.902C138.031 129.902 144.415 131.234 145.424 132.967C146.434 134.699 145.157 141.558 139.098 142.491Z" fill="#EAD053"/>
<path d="M169.525 121.038C169.525 121.038 165.13 121.038 162.731 124.5C162.731 124.5 160.068 126.695 157.803 126.732C155.538 126.768 154.736 123.883 154.736 123.883C154.736 123.883 155.003 126.564 152.608 126.732C152.608 126.732 150.212 126.865 150.343 123.886C150.343 123.886 148.747 127.631 146.348 126.732C146.348 126.732 144.883 126.871 141.421 123.956C137.958 121.041 135.292 121.038 135.292 121.038C135.292 121.038 129.966 115.888 141.676 120.196C141.676 120.196 139.411 116.244 134.751 115.31C134.751 115.31 140.478 113.845 144.208 111.848C144.208 111.848 145.272 112.513 143.676 114.778C143.676 114.778 147.671 116.244 157.396 110.115C157.396 110.115 163.123 114.246 169.516 114.912C169.516 114.912 164.044 118.019 163.132 120.196C163.132 120.196 166.729 118.068 169.516 118.493C169.525 118.493 172.188 118.375 169.525 121.038Z" fill="#EAD053"/>
<path d="M181.515 106.145C181.515 106.145 182.406 104.661 181.515 103.476C180.786 102.5 179.387 100.773 178.934 100.189C178.919 100.171 178.899 100.158 178.877 100.15C178.854 100.143 178.83 100.142 178.807 100.147C178.784 100.151 178.763 100.163 178.746 100.179C178.728 100.195 178.716 100.215 178.709 100.238L178.101 102.512C178.101 102.512 172.362 95.7935 169.589 94.3921C169.562 94.3784 169.532 94.3712 169.501 94.3711C169.471 94.371 169.44 94.378 169.413 94.3916C169.386 94.4051 169.362 94.4249 169.343 94.4492C169.325 94.4736 169.312 94.5019 169.307 94.5319L168.911 96.5079L170.985 99.4719C170.985 99.4719 164.017 94.9514 159.433 97.3986C159.433 97.3986 162.992 105.254 172.331 103.783L174.408 106.747C174.408 106.747 168.477 102.399 162.029 107.415C162.029 107.415 166.92 111.714 173.222 110.085C173.222 110.085 170.851 112.976 171.444 114.31C171.444 114.31 172.556 116.383 179.226 114.31C179.226 114.31 178.189 107.744 176.04 104.761C176.031 104.752 176.253 103.327 181.515 106.145Z" fill="#EAD053"/>
<path d="M145.042 105.424C145.042 105.424 149.325 106.591 149.823 110.65C149.823 110.65 156.207 109.039 157.162 104.479C157.162 104.479 158.074 105.868 159.424 106.424C159.424 106.424 159.554 100.648 151.66 98.6966C151.66 98.6966 152.383 97.4168 155.049 97.4806C155.049 97.4806 151.705 94.9756 148.1 97.2009C148.1 97.2009 149.714 97.4806 149.656 98.8121C149.598 100.144 147.711 102.317 147.711 102.317C147.711 102.317 151.158 104.704 150.492 105.983C149.695 105.461 148.784 105.137 147.835 105.04C146.887 104.942 145.928 105.074 145.042 105.424Z" fill="#EAD053"/>
<path d="M122.95 106.145C122.95 106.145 122.062 104.661 122.95 103.475C123.682 102.5 125.078 100.773 125.534 100.189C125.549 100.171 125.569 100.158 125.591 100.15C125.614 100.143 125.638 100.141 125.661 100.146C125.684 100.151 125.705 100.163 125.722 100.179C125.74 100.195 125.752 100.215 125.759 100.238L126.367 102.512C126.367 102.512 132.106 95.7934 134.879 94.392C134.906 94.3783 134.937 94.3712 134.967 94.3711C134.998 94.371 135.028 94.378 135.056 94.3915C135.084 94.405 135.108 94.4247 135.127 94.449C135.145 94.4734 135.158 94.5017 135.164 94.5318L135.56 96.5078L133.483 99.4718C133.483 99.4718 140.451 94.9513 145.035 97.3985C145.035 97.3985 141.479 105.254 132.137 103.783L130.06 106.747C130.06 106.747 135.991 102.399 142.442 107.415C142.442 107.415 137.548 111.714 131.249 110.084C131.249 110.084 133.62 112.975 133.027 114.31C133.027 114.31 131.915 116.383 125.242 114.31C125.242 114.31 126.282 107.744 128.431 104.761C128.437 104.752 128.215 103.327 122.95 106.145Z" fill="#EAD053"/>
</svg>
