<svg width="57" height="57" viewBox="0 0 57 57" fill="none" xmlns="http://www.w3.org/2000/svg">
<path d="M28.3324 55.658C43.4267 55.658 55.663 43.4217 55.663 28.3274C55.663 13.2331 43.4267 0.996704 28.3324 0.996704C13.2381 0.996704 1.00171 13.2331 1.00171 28.3274C1.00171 43.4217 13.2381 55.658 28.3324 55.658Z" fill="#4A4D4F"/>
<path d="M28.3324 56.6647C21.7776 56.6647 15.4255 54.3919 10.3586 50.2336C5.29159 46.0752 1.82323 40.2886 0.544444 33.8597C-0.734343 27.4309 0.255562 20.7574 3.34549 14.9766C6.43542 9.19574 11.4342 4.66511 17.4901 2.15668C23.546 -0.351749 30.2843 -0.682781 36.5568 1.21999C42.8294 3.12276 48.2482 7.1416 51.8899 12.5917C55.5316 18.0419 57.1708 24.5861 56.5283 31.1094C55.8859 37.6327 53.0014 43.7314 48.3664 48.3664C45.7416 51.0055 42.6195 53.0978 39.1806 54.5223C35.7418 55.9467 32.0546 56.6749 28.3324 56.6647ZM28.3324 2.00341C13.8147 2.00341 1.99841 13.8146 1.99841 28.3374C1.99841 42.8602 13.8097 54.6714 28.3324 54.6714C42.8552 54.6714 54.6664 42.8602 54.6664 28.3374C54.6664 13.8146 42.8514 1.99837 28.3324 1.99837V2.00341Z" fill="white"/>
<path d="M45.3223 32.2536C44.9695 32.0343 41.9682 29.9755 42.4571 23.4512C42.4913 22.9907 42.4028 22.5293 42.2008 22.1141C41.9987 21.6989 41.6902 21.3447 41.3067 21.0874C41.5947 20.7963 41.8103 20.4415 41.9359 20.0516C42.0616 19.6618 42.0938 19.2479 42.0299 18.8434C42.001 18.6619 41.9531 18.3784 41.88 18.0281C42.1893 17.816 42.4493 17.5396 42.6423 17.218C43.2295 16.2389 43.5419 14.5984 42.4911 13.1973C42.1685 12.7664 41.5978 12.0532 41.3684 11.7685C41.1133 11.4473 40.787 11.1898 40.4152 11.0164C40.0435 10.843 39.6365 10.7584 39.2264 10.7693C38.3797 9.91753 37.4183 9.06451 36.6308 8.66635C36.0822 8.38899 35.4551 8.30773 34.8539 8.4361C34.2526 8.56446 33.7134 8.89471 33.3259 9.37195C32.311 9.23699 31.2786 9.37802 30.3371 9.78019C29.2435 9.21697 27.5336 8.81503 25.7696 9.61891C24.9392 9.34258 24.0573 9.25645 23.1892 9.36691C22.8015 8.88939 22.262 8.55905 21.6604 8.4309C21.0589 8.30274 20.4315 8.38451 19.8829 8.66257C19.0967 9.05947 18.1353 9.91249 17.2886 10.7642C16.8788 10.7537 16.4722 10.8381 16.1005 11.011C15.7289 11.184 15.4024 11.4406 15.1466 11.7609C14.916 12.0482 14.344 12.7689 14.0227 13.1923C12.9718 14.5934 13.2843 16.2339 13.8715 17.2129C14.0644 17.5346 14.3244 17.8109 14.6338 18.0231C14.5619 18.3734 14.5078 18.6531 14.4838 18.8383C14.4205 19.2385 14.4513 19.648 14.5738 20.0343C14.6963 20.4205 14.907 20.7729 15.1894 21.0635C15.1252 21.1164 15.0634 21.1731 15.0042 21.2323C14.7208 21.521 14.5086 21.8717 14.3841 22.2565C14.2597 22.6414 14.2265 23.05 14.2873 23.4499C14.2961 23.5155 15.1768 29.9591 11.2507 32.1817C10.7406 32.4702 10.3422 32.9216 10.1194 33.4636C9.89663 34.0056 9.86239 34.6067 10.0222 35.1704C10.2904 36.0795 10.6217 36.9687 11.0138 37.8316C12.0508 40.0996 13.2692 41.4591 14.7383 41.9896C15.0742 42.111 15.4313 42.1624 15.7877 42.1407C16.1441 42.1191 16.4924 42.0247 16.811 41.8636C17.8808 44.0535 19.7204 46.5482 22.8502 48.1447C23.0696 48.2568 23.3038 48.3374 23.5457 48.3841C24.996 48.6481 26.4679 48.7747 27.9419 48.7621C29.6695 48.7506 31.3947 48.6327 33.1079 48.4093C33.4797 48.3651 33.8377 48.2413 34.1575 48.0464C35.4164 47.2391 36.5786 46.29 37.6212 45.2177C38.6026 44.2288 39.4438 43.11 40.121 41.8925C40.5645 42.0872 41.0532 42.1549 41.5328 42.0881C42.0125 42.0214 42.4642 41.8228 42.8376 41.5145C43.1816 41.2298 46.2144 38.6165 46.702 34.9184C46.8545 33.7756 46.3606 32.7248 45.3223 32.2536Z" fill="#4A4D4F"/>
<path d="M27.953 49.2497C26.4485 49.2632 24.9461 49.1332 23.4662 48.8616C23.1785 48.8071 22.9001 48.7116 22.6396 48.5781C20.0465 47.2551 18.0129 45.205 16.5916 42.4834C15.9376 42.6939 15.2325 42.6823 14.5857 42.4507C12.988 41.8761 11.6789 40.4347 10.5839 38.0407C10.1812 37.155 9.84099 36.2422 9.56585 35.309C9.375 34.6405 9.41494 33.9272 9.6792 33.2841C9.94346 32.6411 10.4166 32.1058 11.0224 31.7646C14.6424 29.7159 13.8259 23.5872 13.8171 23.5255C13.752 23.0824 13.7832 22.6305 13.9087 22.2006C14.0342 21.7707 14.2509 21.373 14.5441 21.0345C14.0813 20.3753 13.892 19.5623 14.0162 18.7665C14.0363 18.6405 14.0678 18.4515 14.1107 18.2285C13.8569 18.0126 13.6395 17.7574 13.4668 17.4725C12.8028 16.3649 12.45 14.5052 13.6457 12.91C13.9569 12.4955 14.4899 11.8277 14.7797 11.4673C15.0581 11.1167 15.4087 10.8302 15.8076 10.6271C16.2066 10.4241 16.6446 10.3092 17.0918 10.2905C18.1149 9.27615 18.9818 8.58567 19.6698 8.23791C20.1084 8.01782 20.5917 7.90153 21.0824 7.89803C21.5731 7.89453 22.0581 8.00393 22.4997 8.21775C22.8339 8.38072 23.1367 8.60122 23.3943 8.86917C24.1876 8.79715 24.9873 8.87712 25.7505 9.10479C27.7313 8.28075 29.5091 8.85279 30.3584 9.25095C31.241 8.91341 32.1896 8.78405 33.1304 8.87295C33.6021 8.38329 34.2185 8.05785 34.8889 7.94445C35.5593 7.83105 36.2484 7.93568 36.8549 8.24295C37.5429 8.59071 38.4098 9.27993 39.4329 10.2955C39.8806 10.3145 40.319 10.4295 40.7183 10.6328C41.1177 10.8361 41.4687 11.1228 41.7475 11.4736C41.9781 11.7621 42.5526 12.4816 42.8815 12.915C44.0772 14.5102 43.7257 16.37 43.0604 17.4788C42.8879 17.7638 42.6705 18.0191 42.4166 18.2348C42.4607 18.4603 42.4909 18.6455 42.5111 18.7728C42.6344 19.5614 42.4494 20.3673 41.9945 21.0231C42.3248 21.3394 42.5812 21.7248 42.7452 22.1518C42.9092 22.5787 42.9768 23.0366 42.9432 23.4927C42.4846 29.6088 45.1482 31.5668 45.5565 31.8301C46.7459 32.3921 47.3696 33.5941 47.1882 34.9801C46.6754 38.8672 43.5115 41.5889 43.1562 41.8862C42.7724 42.2063 42.3167 42.4285 41.8282 42.5336C41.3396 42.6387 40.8329 42.6237 40.3514 42.4897C39.6873 43.6052 38.8902 44.6359 37.9776 45.5591C36.9056 46.6573 35.7118 47.6295 34.4194 48.4571C34.0425 48.6881 33.6206 48.8359 33.182 48.8905C31.448 49.1167 29.7017 49.2367 27.953 49.2497ZM17.0414 41.2045L17.2594 41.6493C18.5938 44.381 20.553 46.4209 23.0819 47.7112C23.2606 47.8029 23.4515 47.8687 23.6489 47.9065C25.0687 48.1655 26.5099 48.2891 27.953 48.2757C29.6599 48.2637 31.3645 48.1475 33.0573 47.9279C33.358 47.8907 33.6472 47.7893 33.9053 47.6305C35.1299 46.8446 36.2603 45.9209 37.2745 44.8774C38.2269 43.9209 39.0435 42.8381 39.7013 41.6594L39.9142 41.2675L40.3237 41.4465C40.6848 41.6054 41.083 41.6605 41.4736 41.6055C41.8643 41.5505 42.2318 41.3877 42.535 41.1352C42.8639 40.8618 45.7631 38.3632 46.2268 34.8504C46.3528 33.8915 45.9307 33.065 45.1243 32.6945L45.0714 32.6668C44.6959 32.4375 41.4653 30.2299 41.9693 23.4146C41.9964 23.0399 41.9241 22.6647 41.7597 22.3268C41.5953 21.989 41.3447 21.7005 41.0331 21.4906L40.5467 21.163L40.9575 20.7459C41.1909 20.5084 41.3658 20.2197 41.4682 19.9028C41.5705 19.5858 41.5976 19.2494 41.5472 18.9202C41.5195 18.7488 41.4728 18.4742 41.401 18.1277L41.3355 17.8101L41.6026 17.6274C41.8543 17.4544 42.0657 17.2292 42.2225 16.9672C42.7265 16.118 43.0062 14.6992 42.0965 13.4896C41.779 13.065 41.2145 12.3556 40.9839 12.0734C40.7758 11.8114 40.5098 11.6013 40.2068 11.4594C39.9038 11.3175 39.5721 11.2478 39.2376 11.2556H39.0284L38.881 11.1069C37.8831 10.0989 37.0301 9.40845 36.4114 9.09093C35.962 8.86305 35.4481 8.79616 34.9553 8.90141C34.4625 9.00666 34.0208 9.27768 33.7037 9.66927L33.5348 9.87591L33.2702 9.84441C32.3417 9.71939 31.3966 9.84737 30.5348 10.2149L30.3218 10.3094L30.1139 10.2023C29.4839 9.87717 27.8144 9.21063 25.971 10.0523L25.7946 10.1317L25.6107 10.0687C24.8485 9.81846 24.04 9.74183 23.2444 9.84441L22.9798 9.87591L22.8173 9.67935C22.5 9.28766 22.058 9.01659 21.565 8.91134C21.072 8.8061 20.5579 8.87305 20.1083 9.10101C19.4909 9.41349 18.6378 10.109 17.6399 11.117L17.4925 11.2657H17.2833C16.9491 11.2564 16.6173 11.3252 16.3143 11.4668C16.0114 11.6083 15.7456 11.8186 15.5382 12.0809C15.3077 12.3682 14.7381 13.0801 14.4244 13.4997C13.5185 14.7068 13.7944 16.128 14.2984 16.9773C14.4549 17.2396 14.6664 17.4649 14.9183 17.6375L15.1854 17.8202L15.1187 18.1377C15.0481 18.4779 15.0002 18.7564 14.9738 18.9303C14.921 19.2559 14.9454 19.5893 15.045 19.9038C15.1445 20.2183 15.3165 20.505 15.5471 20.7409L15.9087 21.1189L15.5093 21.4402C15.4513 21.4893 15.4022 21.5347 15.3593 21.5775C15.1276 21.8116 14.954 22.0968 14.8525 22.4102C14.7509 22.7235 14.7243 23.0563 14.7747 23.3819C14.786 23.4537 15.7096 30.2262 11.4987 32.6101C11.083 32.8441 10.7582 33.2113 10.5767 33.6525C10.3952 34.0936 10.3676 34.5831 10.4982 35.0419C10.7603 35.9291 11.084 36.7968 11.4672 37.6387C12.4475 39.7807 13.5752 41.0571 14.9145 41.5447C15.1883 41.6423 15.4791 41.6831 15.7691 41.6647C16.0592 41.6463 16.3424 41.569 16.6017 41.4377L17.0414 41.2045Z" fill="white"/>
<path d="M24.1189 45.4268C26.6389 45.9094 29.6163 45.83 32.8646 45.4268C32.8646 45.4268 38.7425 41.8258 38.8899 36.8286L41.2411 39.1067C41.2411 39.1067 43.814 36.976 44.1806 34.1839C44.1806 34.1839 39.2578 31.6853 39.9193 22.8665L37.2733 22.132C37.2733 22.132 38.8899 26.0266 38.3758 28.9662C37.8617 31.9058 37.6778 30.2149 37.6778 30.2149C37.6778 30.2149 37.0717 29.0027 36.5022 30.3068C35.9327 31.6109 36.2993 35.4136 36.2993 35.4136C36.2993 35.4136 33.6357 31.0036 30.5676 32.5484C30.5676 32.5484 28.786 33.7429 31.156 33.9634C31.156 33.9634 33.5992 35.2851 33.9116 38.7022L31.9826 41.2562C31.9826 41.2562 32.7537 38.3721 30.6961 37.8542C30.6961 37.8542 29.5621 36.7517 27.6835 37.2658C27.6835 37.2658 28.602 37.5178 29.4475 38.4779C29.4475 38.4779 24.4138 38.2952 25.5893 42.1534C25.5893 42.1534 22.0979 40.2054 23.1273 37.5229C24.1567 34.8403 23.2369 37.3767 23.2369 37.3767C23.2369 37.3767 24.0458 34.2897 26.2508 33.7756C26.2508 33.7756 27.8674 33.4442 26.2874 32.4161C26.2874 32.4161 23.0542 31.1662 20.7434 35.3922V31.0969C20.7434 31.0969 19.5678 28.2682 19.2377 30.7289C19.2377 30.7289 17.7257 28.4887 18.9063 24.851L19.2692 22.3928C19.2692 22.3928 18.6392 22.9069 16.9546 22.6864C16.9546 22.6864 18.2032 30.9167 12.6189 34.0768C12.6189 34.0768 13.8676 38.4868 15.7046 39.147L18.0571 36.6484C18.0571 36.6484 18.7916 42.7078 24.1189 45.4268Z" fill="white"/>
<path d="M25.3777 36.8109C25.3777 36.8109 28.0048 34.9361 31.4257 36.8109V35.7626C31.4257 35.7626 28.4861 33.1733 25.3777 35.7626V36.8109Z" fill="#EAD053"/>
<path d="M27.5084 32.4287H29.1892C29.1892 32.4287 29.9339 30.9683 31.4219 31.0515L31.0074 29.8935C31.0074 29.8935 30.7315 29.4803 30.2086 29.8935C29.6857 30.3068 29.6567 30.5235 29.6567 30.5235C29.6567 30.5235 29.5193 29.0909 29.9326 28.2366C29.9326 28.2366 30.1531 27.1341 29.3266 26.61C28.7416 26.8385 28.0921 26.8385 27.5071 26.61C27.5071 26.61 26.6528 26.862 26.9011 28.4294C27.1493 29.9969 27.2602 30.4139 27.2602 30.4139L26.5432 29.862C26.5432 29.862 25.9913 29.2005 25.7167 29.9994C25.442 30.7982 25.5239 31.0477 25.5239 31.0477L26.295 31.2128C26.295 31.2128 27.3156 31.7394 27.5084 32.4287Z" fill="#EAD053"/>
<path d="M34.1712 30.5475C34.1712 30.5475 34.5858 28.4773 35.2485 28.035L34.1712 27.8107C34.1712 27.8107 35.8559 26.4852 36.6837 26.237C36.6837 26.237 37.1247 26.0997 36.6837 25.7683L36.4632 24.6633C36.4632 24.6633 35.7173 23.5872 34.9726 24.3319C34.9726 24.3319 34.6135 24.9392 34.6135 25.326C34.6135 25.326 31.9675 25.8779 31.5492 26.5961C31.1309 27.3143 31.6601 30.1606 34.1712 30.5475Z" fill="#EAD053"/>
<path d="M22.8879 30.5475C22.8879 30.5475 22.4733 28.4773 21.8106 28.035L22.8879 27.8145C22.8879 27.8145 21.2033 26.489 20.3754 26.2408C20.3754 26.2408 19.9344 26.1034 20.3754 25.7721L20.5959 24.667C20.5959 24.667 21.3419 23.591 22.0865 24.3357C22.0865 24.3357 22.4456 24.943 22.4456 25.3298C22.4456 25.3298 25.0916 25.8817 25.5099 26.5999C25.9283 27.3181 25.3991 30.1606 22.8879 30.5475Z" fill="#EAD053"/>
<path d="M35.4993 21.6557C35.4993 21.6557 33.6774 21.6557 32.6832 23.0909C32.6832 23.0909 31.5795 24.0006 30.6408 24.0157C29.7021 24.0308 29.3694 22.8351 29.3694 22.8351C29.3694 22.8351 29.4803 23.9464 28.4874 24.0157C28.4874 24.0157 27.4945 24.0711 27.5487 22.8363C27.5487 22.8363 26.8872 24.3887 25.8931 24.0157C25.8931 24.0157 25.2858 24.0737 23.8506 22.8653C22.4155 21.657 21.3105 21.6557 21.3105 21.6557C21.3105 21.6557 19.1029 19.5213 23.9565 21.3067C23.9565 21.3067 23.0178 19.6687 21.0862 19.2819C21.0862 19.2819 23.46 18.6746 25.006 17.8467C25.006 17.8467 25.447 18.1227 24.7855 19.0614C24.7855 19.0614 26.4412 19.6687 30.4719 17.1285C30.4719 17.1285 32.8458 18.8409 35.4955 19.1168C35.4955 19.1168 33.2275 20.4045 32.8495 21.3067C32.8495 21.3067 34.3401 20.4247 35.4955 20.6011C35.4993 20.6011 36.6031 20.552 35.4993 21.6557Z" fill="#EAD053"/>
<path d="M40.4688 15.4829C40.4688 15.4829 40.838 14.868 40.4688 14.3766C40.1664 13.9721 39.5868 13.2565 39.3991 13.0145C39.3927 13.0071 39.3845 13.0015 39.3752 12.9984C39.3659 12.9953 39.356 12.9947 39.3464 12.9968C39.3369 12.9988 39.328 13.0035 39.3209 13.0101C39.3137 13.0168 39.3085 13.0253 39.3058 13.0347L39.0538 13.9772C39.0538 13.9772 36.6749 11.1926 35.5258 10.6117C35.5145 10.606 35.502 10.6031 35.4893 10.603C35.4767 10.603 35.4642 10.6059 35.4528 10.6115C35.4414 10.6171 35.4315 10.6253 35.4239 10.6354C35.4162 10.6455 35.411 10.6572 35.4086 10.6697L35.2448 11.4887L36.1042 12.7172C36.1042 12.7172 33.2162 10.8436 31.3162 11.8579C31.3162 11.8579 32.7916 15.1137 36.6623 14.5039L37.5229 15.7324C37.5229 15.7324 35.0647 13.9306 32.3922 16.0096C32.3922 16.0096 34.4195 17.7912 37.0315 17.1158C37.0315 17.1158 36.0487 18.3141 36.2944 18.8672C36.2944 18.8672 36.7556 19.7266 39.52 18.8672C39.52 18.8672 39.0904 16.1456 38.1995 14.9096C38.1958 14.9058 38.2877 14.3149 40.4688 15.4829Z" fill="#EAD053"/>
<path d="M25.3513 15.1844C25.3513 15.1844 27.1267 15.6682 27.3333 17.3503C27.3333 17.3503 29.9793 16.6825 30.3749 14.7925C30.3749 14.7925 30.7529 15.3683 31.3124 15.5989C31.3124 15.5989 31.3666 13.2049 28.0943 12.396C28.0943 12.396 28.3942 11.8655 29.4992 11.892C29.4992 11.892 28.1132 10.8537 26.6189 11.776C26.6189 11.776 27.2879 11.892 27.264 12.4439C27.2401 12.9957 26.4576 13.8966 26.4576 13.8966C26.4576 13.8966 27.8864 14.8857 27.6105 15.4162C27.28 15.1995 26.9023 15.0654 26.5092 15.025C26.116 14.9847 25.7189 15.0393 25.3513 15.1844Z" fill="#EAD053"/>
<path d="M16.1948 15.483C16.1948 15.483 15.8268 14.8681 16.1948 14.3767C16.4984 13.9722 17.0768 13.2565 17.2658 13.0146C17.2721 13.0072 17.2804 13.0016 17.2896 12.9985C17.2989 12.9954 17.3088 12.9948 17.3184 12.9969C17.328 12.9989 17.3368 13.0036 17.3439 13.0102C17.3511 13.0169 17.3563 13.0254 17.359 13.0348L17.611 13.9773C17.611 13.9773 19.9899 11.1927 21.139 10.6118C21.1504 10.6061 21.163 10.6032 21.1757 10.6031C21.1885 10.6031 21.2011 10.606 21.2125 10.6116C21.224 10.6172 21.234 10.6254 21.2417 10.6355C21.2495 10.6455 21.2549 10.6573 21.2574 10.6698L21.4213 11.4888L20.5607 12.7173C20.5607 12.7173 23.4486 10.8436 25.3487 11.8579C25.3487 11.8579 23.8745 15.1138 20.0025 14.5039L19.1419 15.7324C19.1419 15.7324 21.6002 13.9306 24.2739 16.0096C24.2739 16.0096 22.2453 17.7913 19.6346 17.1159C19.6346 17.1159 20.6174 18.3142 20.3717 18.8673C20.3717 18.8673 19.9105 19.7266 17.1448 18.8673C17.1448 18.8673 17.5757 16.1457 18.4665 14.9097C18.4691 14.9059 18.3771 14.3149 16.1948 15.483Z" fill="#EAD053"/>
</svg>
