<svg width="42" height="42" viewBox="0 0 42 42" fill="none" xmlns="http://www.w3.org/2000/svg">
<g clip-path="url(#clip0_98_361)">
<path d="M32.1562 0H9.84375C4.4072 0 0 4.4072 0 9.84375V32.1562C0 37.5928 4.4072 42 9.84375 42H32.1562C37.5928 42 42 37.5928 42 32.1562V9.84375C42 4.4072 37.5928 0 32.1562 0Z" fill="#5865F2"/>
<mask id="mask0_98_361" style="mask-type:luminance" maskUnits="userSpaceOnUse" x="4" y="8" width="34" height="26">
<path d="M4.59375 8.36719H37.4062V33.7854H4.59375V8.36719Z" fill="white"/>
</mask>
<g mask="url(#mask0_98_361)">
<path d="M32.3707 10.6308C30.2435 9.65428 27.9984 8.95792 25.6919 8.55919C25.671 8.55531 25.6493 8.55814 25.6301 8.56727C25.6108 8.5764 25.5949 8.59137 25.5846 8.61005C25.2962 9.12291 24.9766 9.79228 24.753 10.3183C22.2309 9.94059 19.7219 9.94059 17.2516 10.3183C17.0278 9.78047 16.6967 9.12291 16.407 8.61005C16.3962 8.59175 16.3803 8.57711 16.3611 8.56804C16.3419 8.55896 16.3205 8.55588 16.2995 8.55919C13.9928 8.95712 11.7477 9.6535 9.62069 10.6308C9.60248 10.6385 9.58712 10.6517 9.57672 10.6685C5.32291 17.0237 4.15774 23.2226 4.72933 29.3448C4.73092 29.3598 4.73552 29.3743 4.74285 29.3875C4.75017 29.4007 4.76009 29.4123 4.77199 29.4215C7.57844 31.4827 10.2971 32.734 12.9653 33.5633C12.986 33.5695 13.0082 33.5692 13.0288 33.5624C13.0493 33.5557 13.0674 33.5428 13.0804 33.5256C13.7116 32.6636 14.2742 31.7548 14.7567 30.7992C14.7633 30.7861 14.7671 30.7717 14.7678 30.7571C14.7685 30.7424 14.7661 30.7278 14.7607 30.7141C14.7553 30.7004 14.7471 30.6881 14.7366 30.6778C14.7261 30.6676 14.7135 30.6597 14.6997 30.6546C13.8072 30.316 12.9576 29.9034 12.1402 29.4347C12.1253 29.4259 12.1128 29.4136 12.1038 29.3989C12.0948 29.3841 12.0895 29.3674 12.0885 29.3501C12.0875 29.3329 12.0907 29.3157 12.0979 29.3C12.1052 29.2843 12.1161 29.2706 12.1299 29.2601C12.3023 29.1312 12.4718 28.9984 12.6381 28.8618C12.6527 28.8497 12.6703 28.842 12.6891 28.8394C12.7078 28.8369 12.7269 28.8396 12.7441 28.8473C18.1142 31.2991 23.9278 31.2991 29.2344 28.8473C29.2517 28.8391 29.271 28.836 29.29 28.8383C29.309 28.8406 29.327 28.8483 29.3418 28.8604C29.5084 28.9979 29.6783 29.1311 29.8514 29.2601C29.8652 29.2705 29.8763 29.2841 29.8836 29.2997C29.8909 29.3153 29.8943 29.3325 29.8934 29.3498C29.8925 29.367 29.8874 29.3838 29.8785 29.3986C29.8696 29.4134 29.8572 29.4258 29.8424 29.4347C29.0246 29.9122 28.1679 30.3198 27.2815 30.6533C27.2678 30.6586 27.2553 30.6667 27.2448 30.6771C27.2344 30.6875 27.2263 30.7 27.2211 30.7138C27.2158 30.7276 27.2135 30.7423 27.2144 30.757C27.2152 30.7717 27.2191 30.7861 27.2259 30.7992C27.7168 31.7473 28.2765 32.6581 28.9007 33.5243C28.9134 33.542 28.9313 33.5553 28.952 33.5623C28.9726 33.5693 28.995 33.5696 29.0158 33.5633C31.6969 32.734 34.4156 31.4827 37.2222 29.4215C37.2343 29.4127 37.2443 29.4014 37.2516 29.3884C37.259 29.3754 37.2635 29.3609 37.2649 29.3461C37.949 22.2683 36.1189 16.12 32.4134 10.6699C32.4043 10.6521 32.3892 10.6383 32.3707 10.6308ZM15.5586 25.6171C13.9418 25.6171 12.6096 24.1328 12.6096 22.3099C12.6096 20.487 13.916 19.0027 15.5586 19.0027C17.214 19.0027 18.5332 20.5001 18.5073 22.3099C18.5073 24.1328 17.2012 25.6171 15.5586 25.6171ZM26.4615 25.6171C24.8447 25.6171 23.5127 24.1328 23.5127 22.3099C23.5127 20.487 24.8189 19.0027 26.4615 19.0027C28.1169 19.0027 29.4362 20.5001 29.4104 22.3099C29.4104 24.1328 28.1169 25.6171 26.4615 25.6171Z" fill="white"/>
</g>
</g>
<defs>
<clipPath id="clip0_98_361">
<rect width="42" height="42" fill="white"/>
</clipPath>
</defs>
</svg>
