<svg width="42" height="42" viewBox="0 0 42 42" fill="none" xmlns="http://www.w3.org/2000/svg">
<g clip-path="url(#clip0_102_404)">
<path d="M0 20.16C0 10.6565 0 5.90473 2.95236 2.95236C5.90473 0 10.6565 0 20.16 0H21.84C31.3435 0 36.0952 0 39.0477 2.95236C42 5.90473 42 10.6565 42 20.16V21.84C42 31.3435 42 36.0952 39.0477 39.0477C36.0952 42 31.3435 42 21.84 42H20.16C10.6565 42 5.90473 42 2.95236 39.0477C0 36.0952 0 31.3435 0 21.84V20.16Z" fill="#0077FF"/>
<path d="M22.3476 30.2576C12.7751 30.2576 7.31515 23.6951 7.08765 12.7751H11.8826C12.0401 20.7901 15.5751 24.1851 18.3751 24.8851V12.7751H22.8902V19.6876C25.6552 19.3901 28.5599 16.2401 29.5399 12.7751H34.055C33.3025 17.0451 30.1525 20.1951 27.9125 21.4901C30.1525 22.5401 33.7401 25.2876 35.1051 30.2576H30.135C29.0675 26.9326 26.4077 24.3601 22.8902 24.0101V30.2576H22.3476Z" fill="white"/>
</g>
<defs>
<clipPath id="clip0_102_404">
<rect width="42" height="42" fill="white"/>
</clipPath>
</defs>
</svg>
